<svg xmlns="http://www.w3.org/2000/svg" viewBox="0 0 1200 750" width="1200" height="750">
<defs>
<radialGradient id="ground" cx="50%" cy="32%" r="84%">
<stop offset="0%" stop-color="hsl(6.97 33% 17%)"/>
<stop offset="58%" stop-color="hsl(6.97 26% 10%)"/>
<stop offset="100%" stop-color="hsl(6.97 22% 6%)"/>
</radialGradient>
<radialGradient id="keyLight" cx="50%" cy="44%" r="50%">
<stop offset="0%" stop-color="hsl(26 96% 58% / 0.34)"/>
<stop offset="55%" stop-color="hsl(20 92% 46% / 0.11560000000000002)"/>
<stop offset="100%" stop-color="hsl(20 90% 40% / 0)"/>
</radialGradient>
<radialGradient id="dishShadow" cx="50%" cy="50%" r="50%">
<stop offset="0%" stop-color="hsl(6.97 60% 3% / 0.6)"/>
<stop offset="100%" stop-color="hsl(6.97 60% 3% / 0)"/>
</radialGradient>
<radialGradient id="vignette" cx="50%" cy="46%" r="72%">
<stop offset="52%" stop-color="hsl(6.97 40% 4% / 0)"/>
<stop offset="100%" stop-color="hsl(6.97 40% 4% / 0.62)"/>
</radialGradient>
<linearGradient id="topSheen" x1="0" y1="0" x2="0" y2="1">
<stop offset="0%" stop-color="hsl(38 100% 72% / 0.11)"/>
<stop offset="45%" stop-color="hsl(38 100% 72% / 0)"/>
</linearGradient>
</defs>
<rect width="1200" height="750" fill="url(#ground)"/>
<ellipse cx="600" cy="375" rx="552" ry="330" fill="url(#keyLight)"/>
<g transform="translate(600 375) scale(1.2)"><ellipse cx="0" cy="168" rx="300" ry="52" fill="url(#dishShadow)"/><ellipse cx="0" cy="150" rx="300" ry="90" fill="hsl(28 12% 20%)"/><ellipse cx="0" cy="141" rx="282" ry="84" fill="hsl(28 14% 31%)"/><ellipse cx="0" cy="138" rx="210" ry="57" fill="hsl(28 14% 24%)" opacity="0.75"/><g transform="rotate(-13.73 -104 67.85)"><path d="M-15.81 72.85C-13.14 85.05 -5.17 102.87 -13.14 113C-21.11 123.13 -46.13 129.09 -63.62 133.63C-81.12 138.18 -100.92 142.11 -118.1 140.28C-135.28 138.44 -153.07 130.62 -166.71 122.61C-180.35 114.6 -195.66 103.48 -199.93 92.22C-204.2 80.95 -197.69 66.67 -192.3 55.03C-186.91 43.39 -180.04 30.31 -167.6 22.39C-155.16 14.47 -134.39 8.31 -117.67 7.5C-100.94 6.7 -82 12.15 -67.25 17.54C-52.51 22.92 -37.74 30.57 -29.17 39.79C-20.6 49.01 -18.48 60.65 -15.81 72.85Z" fill="hsl(26 68% 34%)"/><path d="M-7.99 67.85C-9.23 80.65 -12.19 93.53 -20.84 104.59C-29.49 115.66 -43.72 129.28 -59.9 134.24C-76.08 139.2 -99.75 136.86 -117.91 134.37C-136.07 131.88 -157.36 127.6 -168.85 119.3C-180.33 111 -183.58 95.98 -186.82 84.57C-190.05 73.16 -191.42 62.07 -188.26 50.84C-185.1 39.61 -179.39 26.28 -167.84 17.2C-156.29 8.13 -136.29 -1.97 -118.95 -3.62C-101.61 -5.26 -81.4 2.11 -63.81 7.34C-46.21 12.58 -22.69 17.73 -13.39 27.82C-4.08 37.9 -6.74 55.06 -7.99 67.85Z" fill="hsl(32 76% 48%)"/><path d="M-59.77 52.01C-60.32 58.09 -70.26 64.48 -77.96 69.48C-85.66 74.49 -95.32 80.73 -105.97 82.03C-116.63 83.34 -132.55 80.77 -141.89 77.33C-151.22 73.89 -156.37 67.63 -162 61.39C-167.63 55.15 -177.66 46.97 -175.67 39.88C-173.67 32.78 -161.96 22.75 -150.05 18.85C-138.14 14.94 -116.77 14.08 -104.21 16.44C-91.65 18.8 -82.09 27.09 -74.69 33.02C-67.28 38.95 -59.23 45.93 -59.77 52.01Z" fill="hsl(38 84% 62%)" opacity="0.55"/><circle cx="-46.47" cy="82.99" r="5.12" fill="hsl(24 62% 22% / 0.9)" opacity="0.53"/><circle cx="-80.63" cy="88.35" r="3.72" fill="hsl(24 62% 22% / 0.9)" opacity="0.55"/><circle cx="-86.56" cy="50.57" r="4.64" fill="hsl(24 62% 22% / 0.9)" opacity="0.41"/><circle cx="-31.39" cy="87.35" r="4.13" fill="hsl(24 62% 22% / 0.9)" opacity="0.45"/><circle cx="-80.81" cy="60.52" r="4.51" fill="hsl(24 62% 22% / 0.9)" opacity="0.43"/><circle cx="-92.62" cy="121.32" r="3.16" fill="hsl(24 62% 22% / 0.9)" opacity="0.41"/><circle cx="-88.82" cy="20.34" r="3.82" fill="hsl(24 62% 22% / 0.9)" opacity="0.35"/><circle cx="-35.31" cy="88.6" r="2.5" fill="hsl(24 62% 22% / 0.9)" opacity="0.39"/><circle cx="-110.34" cy="73.71" r="5.17" fill="hsl(24 62% 22% / 0.9)" opacity="0.32"/><circle cx="-148.61" cy="82.72" r="5.14" fill="hsl(24 62% 22% / 0.9)" opacity="0.44"/><circle cx="-68.04" cy="39.37" r="2.95" fill="hsl(24 62% 22% / 0.9)" opacity="0.45"/><circle cx="-77.94" cy="117.84" r="4.86" fill="hsl(24 62% 22% / 0.9)" opacity="0.49"/><circle cx="-28.31" cy="70.1" r="4.74" fill="hsl(24 62% 22% / 0.9)" opacity="0.26"/><circle cx="-117.05" cy="67.68" r="4.7" fill="hsl(24 62% 22% / 0.9)" opacity="0.55"/></g><path d="M-11.07 67.85C-9.97 80.17 -20.54 97.81 -33.67 106.62C-46.79 115.44 -70.43 118.48 -89.81 120.73C-109.19 122.98 -134.91 125.91 -149.93 120.12C-164.96 114.33 -175.25 97.67 -179.94 86.01C-184.62 74.35 -182.82 62.13 -178.03 50.15C-173.25 38.17 -165.85 19.71 -151.22 14.12C-136.59 8.53 -108.74 13.51 -90.25 16.61C-71.75 19.7 -53.46 24.18 -40.27 32.72C-27.07 41.26 -12.17 55.54 -11.07 67.85Z" fill="hsl(8 78% 42%)" opacity="0.62"/><ellipse cx="-182.72" cy="94.25" rx="20" ry="13" fill="hsl(38 30% 84%)" transform="rotate(-13.73 -104 67.85)"/><g transform="rotate(-16.3 -52 98.52)"><path d="M42.12 103.52C41.92 113.97 27.73 125.05 18.39 134.62C9.06 144.18 0.08 155.46 -13.88 160.91C-27.83 166.35 -49.44 169.27 -65.33 167.27C-81.23 165.28 -94.68 156.18 -109.26 148.95C-123.84 141.71 -145.86 134.78 -152.84 123.87C-159.82 112.97 -156.65 95.85 -151.13 83.51C-145.61 71.16 -133.83 58.03 -119.73 49.78C-105.63 41.54 -84.65 35.37 -66.53 34.03C-48.41 32.7 -25.34 35.47 -10.99 41.78C3.36 48.09 10.72 61.61 19.57 71.9C28.42 82.19 42.31 93.06 42.12 103.52Z" fill="hsl(26 68% 34%)"/><path d="M32.72 98.52C31.79 110.47 33.34 122.37 26.37 133.14C19.41 143.92 6.02 159.24 -9.07 163.15C-24.15 167.05 -45.4 158.14 -64.14 156.56C-82.88 154.98 -109.4 160.48 -121.49 153.66C-133.59 146.83 -133.1 127.88 -136.73 115.62C-140.36 103.36 -148.09 90.33 -143.28 80.09C-138.47 69.85 -121.04 60.87 -107.87 54.19C-94.69 47.51 -79.34 41.35 -64.23 40.02C-49.13 38.68 -33.26 42.6 -17.23 46.17C-1.2 49.74 23.62 52.7 31.95 61.43C40.27 70.15 33.65 86.56 32.72 98.52Z" fill="hsl(32 76% 48%)"/><path d="M-6.01 82.68C-5.93 89.8 -9.58 98.5 -17.37 104.15C-25.16 109.79 -40.86 116.09 -52.75 116.54C-64.64 117 -77.16 110.55 -88.71 106.87C-100.27 103.2 -118.33 100.12 -122.06 94.49C-125.79 88.86 -116.73 79.01 -111.1 73.08C-105.47 67.14 -97.74 62.05 -88.29 58.89C-78.85 55.72 -66.17 53.67 -54.43 54.1C-42.69 54.52 -25.93 56.67 -17.86 61.43C-9.79 66.2 -6.09 75.56 -6.01 82.68Z" fill="hsl(38 84% 62%)" opacity="0.55"/><circle cx="-23.44" cy="72.3" r="4.63" fill="hsl(24 62% 22% / 0.9)" opacity="0.42"/><circle cx="-49.34" cy="83.67" r="5.71" fill="hsl(24 62% 22% / 0.9)" opacity="0.52"/><circle cx="-81.63" cy="67.58" r="3.12" fill="hsl(24 62% 22% / 0.9)" opacity="0.52"/><circle cx="-19.76" cy="117.78" r="6.4" fill="hsl(24 62% 22% / 0.9)" opacity="0.5"/><circle cx="-39.03" cy="104.29" r="5.38" fill="hsl(24 62% 22% / 0.9)" opacity="0.41"/><circle cx="-54.15" cy="89.38" r="3.39" fill="hsl(24 62% 22% / 0.9)" opacity="0.42"/><circle cx="-105.34" cy="74.27" r="4.15" fill="hsl(24 62% 22% / 0.9)" opacity="0.54"/><circle cx="-45.37" cy="91.42" r="4.25" fill="hsl(24 62% 22% / 0.9)" opacity="0.46"/><circle cx="-93.95" cy="120.8" r="3.09" fill="hsl(24 62% 22% / 0.9)" opacity="0.49"/><circle cx="12.22" cy="73.87" r="4.09" fill="hsl(24 62% 22% / 0.9)" opacity="0.23"/><circle cx="-80.8" cy="110.66" r="3.85" fill="hsl(24 62% 22% / 0.9)" opacity="0.26"/><circle cx="-112.92" cy="97.97" r="4.9" fill="hsl(24 62% 22% / 0.9)" opacity="0.49"/><circle cx="21.17" cy="118.1" r="5.65" fill="hsl(24 62% 22% / 0.9)" opacity="0.24"/><circle cx="-121.62" cy="101.91" r="4.62" fill="hsl(24 62% 22% / 0.9)" opacity="0.33"/></g><path d="M32.62 98.52C32.41 110.74 25.56 125.8 13.88 134.83C2.2 143.86 -19.77 151.12 -37.46 152.7C-55.15 154.28 -77.31 150.36 -92.26 144.32C-107.21 138.29 -120.52 127.31 -127.16 116.49C-133.8 105.66 -137.3 90.68 -132.08 79.37C-126.87 68.05 -111.85 55.2 -95.87 48.6C-79.89 41.99 -54.72 37.57 -36.22 39.72C-17.72 41.87 3.67 51.71 15.14 61.51C26.62 71.31 32.83 86.3 32.62 98.52Z" fill="hsl(8 78% 42%)" opacity="0.62"/><ellipse cx="-130.72" cy="124.92" rx="20" ry="13" fill="hsl(38 30% 84%)" transform="rotate(-16.3 -52 98.52)"/><g transform="rotate(7.13 0 105.62)"><path d="M102.53 110.62C103.67 123.38 100.46 140.36 90.04 150.4C79.63 160.45 57.14 167.52 40.04 170.9C22.94 174.28 3.25 173.48 -12.56 170.69C-28.38 167.9 -39.83 160.71 -54.87 154.15C-69.9 147.6 -96.61 141.7 -102.75 131.36C-108.89 121.02 -97.86 104.27 -91.71 92.11C-85.56 79.94 -78.85 66.3 -65.87 58.36C-52.89 50.43 -32.31 47.08 -13.83 44.5C4.65 41.92 28.84 37.97 45.01 42.87C61.18 47.76 73.6 62.57 83.19 73.86C92.78 85.16 101.39 97.86 102.53 110.62Z" fill="hsl(26 68% 34%)"/><path d="M101.36 105.62C101.43 116.21 82.91 128.3 72.12 137.49C61.33 146.67 50.9 155.15 36.6 160.72C22.3 166.3 1.82 172.69 -13.66 170.94C-29.14 169.2 -42.9 157.99 -56.26 150.26C-69.61 142.53 -87.48 135.16 -93.78 124.55C-100.08 113.95 -98.35 98.78 -94.05 86.64C-89.75 74.49 -81.52 58.79 -68 51.67C-54.47 44.55 -31.71 46.17 -12.9 43.92C5.9 41.66 30.73 33.13 44.83 38.14C58.93 43.14 62.29 62.69 71.71 73.94C81.13 85.18 101.29 95.03 101.36 105.62Z" fill="hsl(32 76% 48%)"/><path d="M40.08 89.78C39.9 96.4 37.38 103.71 30.58 109.37C23.78 115.03 11.85 121.65 -0.73 123.72C-13.3 125.8 -33.42 125.52 -44.87 121.81C-56.32 118.1 -64.04 109.01 -69.43 101.47C-74.82 93.92 -82.65 82.5 -77.19 76.53C-71.74 70.55 -49.38 68.9 -36.69 65.61C-24 62.32 -12.43 56.13 -1.03 56.81C10.37 57.48 24.85 64.18 31.7 69.67C38.55 75.17 40.27 83.17 40.08 89.78Z" fill="hsl(38 84% 62%)" opacity="0.55"/><circle cx="-31.59" cy="103.58" r="5.38" fill="hsl(24 62% 22% / 0.9)" opacity="0.48"/><circle cx="-70.22" cy="99.7" r="6.28" fill="hsl(24 62% 22% / 0.9)" opacity="0.3"/><circle cx="17.65" cy="126.28" r="5.08" fill="hsl(24 62% 22% / 0.9)" opacity="0.49"/><circle cx="45.24" cy="122.27" r="3.92" fill="hsl(24 62% 22% / 0.9)" opacity="0.39"/><circle cx="28.56" cy="74.32" r="6.19" fill="hsl(24 62% 22% / 0.9)" opacity="0.34"/><circle cx="31.16" cy="80.81" r="4.6" fill="hsl(24 62% 22% / 0.9)" opacity="0.54"/><circle cx="61.77" cy="138.57" r="3.07" fill="hsl(24 62% 22% / 0.9)" opacity="0.43"/><circle cx="58.7" cy="87.05" r="5.44" fill="hsl(24 62% 22% / 0.9)" opacity="0.54"/><circle cx="-5.31" cy="102.41" r="5.91" fill="hsl(24 62% 22% / 0.9)" opacity="0.52"/><circle cx="3.78" cy="59.84" r="6.04" fill="hsl(24 62% 22% / 0.9)" opacity="0.39"/><circle cx="-51.82" cy="143.65" r="4.72" fill="hsl(24 62% 22% / 0.9)" opacity="0.46"/><circle cx="40.99" cy="81.85" r="4.25" fill="hsl(24 62% 22% / 0.9)" opacity="0.25"/><circle cx="-27.23" cy="140.22" r="5.02" fill="hsl(24 62% 22% / 0.9)" opacity="0.47"/><circle cx="-35.21" cy="70.19" r="2.6" fill="hsl(24 62% 22% / 0.9)" opacity="0.44"/></g><path d="M83.56 105.62C84.16 117.73 79.13 133.7 67.68 142.93C56.23 152.16 33.26 159.13 14.87 161.01C-3.53 162.89 -26.59 160.17 -42.69 154.19C-58.79 148.22 -76.42 136.23 -81.73 125.16C-87.04 114.1 -81.26 98.93 -74.56 87.79C-67.87 76.65 -56.34 64.08 -41.56 58.33C-26.79 52.57 -3.55 51.25 14.06 53.25C31.66 55.24 52.49 61.57 64.08 70.3C75.66 79.03 82.96 93.52 83.56 105.62Z" fill="hsl(8 78% 42%)" opacity="0.62"/><ellipse cx="-78.72" cy="132.02" rx="20" ry="13" fill="hsl(38 30% 84%)" transform="rotate(7.13 0 105.62)"/><g transform="rotate(6.61 52 79.6)"><path d="M142.92 84.6C144.95 96.85 148.98 112.83 141.27 124.04C133.56 135.25 114.02 146.62 96.67 151.85C79.33 157.08 54.72 158.63 37.19 155.43C19.65 152.22 2.83 141.64 -8.53 132.62C-19.88 123.61 -24.46 112.69 -30.95 101.34C-37.43 89.99 -52.09 74.58 -47.41 64.53C-42.74 54.48 -17.36 47.78 -2.9 41.04C11.56 34.3 23.04 27.62 39.35 24.1C55.65 20.59 79.97 15.56 94.94 19.96C109.9 24.36 121.14 39.75 129.13 50.52C137.13 61.29 140.9 72.34 142.92 84.6Z" fill="hsl(26 68% 34%)"/><path d="M156.83 79.6C156.65 92.9 153.3 110.31 141.77 119.26C130.25 128.21 105.01 128.58 87.68 133.31C70.35 138.04 53.95 148.47 37.77 147.63C21.6 146.8 5.04 136.25 -9.38 128.3C-23.79 120.34 -43.79 111.1 -48.7 99.93C-53.62 88.75 -44.77 73.29 -38.88 61.25C-33 49.21 -26.08 36.5 -13.41 27.7C-0.75 18.9 19.32 10.17 37.12 8.43C54.92 6.7 75.76 12.14 93.37 17.31C110.99 22.49 132.25 29.09 142.82 39.47C153.4 49.85 157 66.3 156.83 79.6Z" fill="hsl(32 76% 48%)"/><path d="M104.73 63.76C103.18 70.83 90.59 77.99 81.41 82.8C72.23 87.61 60.95 91.5 49.66 92.62C38.37 93.73 23.2 92.7 13.67 89.51C4.13 86.31 -2.49 79.66 -7.54 73.45C-12.59 67.24 -20.1 58.19 -16.61 52.24C-13.13 46.28 2.07 41.39 13.36 37.72C24.66 34.05 38.24 29.79 51.14 30.23C64.04 30.67 81.83 34.78 90.76 40.37C99.69 45.96 106.29 56.69 104.73 63.76Z" fill="hsl(38 84% 62%)" opacity="0.55"/><circle cx="101.83" cy="54.31" r="4.23" fill="hsl(24 62% 22% / 0.9)" opacity="0.39"/><circle cx="55.13" cy="40.39" r="2.75" fill="hsl(24 62% 22% / 0.9)" opacity="0.45"/><circle cx="16.17" cy="105.67" r="4.03" fill="hsl(24 62% 22% / 0.9)" opacity="0.34"/><circle cx="20.34" cy="42.97" r="6.05" fill="hsl(24 62% 22% / 0.9)" opacity="0.53"/><circle cx="85.97" cy="107.28" r="6.2" fill="hsl(24 62% 22% / 0.9)" opacity="0.29"/><circle cx="17.51" cy="96.09" r="3.51" fill="hsl(24 62% 22% / 0.9)" opacity="0.51"/><circle cx="10.27" cy="45.98" r="3.05" fill="hsl(24 62% 22% / 0.9)" opacity="0.27"/><circle cx="97.37" cy="69.36" r="6.27" fill="hsl(24 62% 22% / 0.9)" opacity="0.55"/><circle cx="92.04" cy="98.91" r="4.69" fill="hsl(24 62% 22% / 0.9)" opacity="0.31"/><circle cx="43.72" cy="108.22" r="2.91" fill="hsl(24 62% 22% / 0.9)" opacity="0.25"/><circle cx="121.69" cy="90.53" r="4.1" fill="hsl(24 62% 22% / 0.9)" opacity="0.48"/><circle cx="52.79" cy="103.31" r="3.9" fill="hsl(24 62% 22% / 0.9)" opacity="0.46"/><circle cx="58.32" cy="57.59" r="4.34" fill="hsl(24 62% 22% / 0.9)" opacity="0.22"/><circle cx="-3.96" cy="60.98" r="3.25" fill="hsl(24 62% 22% / 0.9)" opacity="0.26"/></g><path d="M130.17 79.6C131.42 91.86 132.78 108.32 122.46 118.44C112.15 128.57 86.83 139.11 68.31 140.35C49.79 141.58 28.48 132.54 11.34 125.86C-5.79 119.18 -27.77 111.22 -34.51 100.28C-41.24 89.34 -36.88 71.17 -29.06 60.22C-21.24 49.26 -3.72 41.03 12.4 34.54C28.52 28.05 50.56 19.55 67.65 21.28C84.75 23 104.56 35.16 114.98 44.88C125.4 54.6 128.92 67.34 130.17 79.6Z" fill="hsl(8 78% 42%)" opacity="0.62"/><ellipse cx="-26.72" cy="106" rx="20" ry="13" fill="hsl(38 30% 84%)" transform="rotate(6.61 52 79.6)"/><g transform="rotate(-13.75 104 68.8)"><path d="M211.85 73.8C213.04 85.29 196.83 99.76 185.54 109.83C174.26 119.9 159.96 129.55 144.14 134.23C128.31 138.91 106.63 140.58 90.59 137.93C74.55 135.27 60.36 126.03 47.91 118.3C35.47 110.58 22.97 102.31 15.92 91.59C8.87 80.86 0.29 64.32 5.62 53.94C10.95 43.56 33.62 36.08 47.91 29.3C62.2 22.53 75.06 16.3 91.34 13.28C107.62 10.26 131.09 6.57 145.6 11.18C160.11 15.79 167.34 30.5 178.38 40.94C189.42 51.38 210.65 62.32 211.85 73.8Z" fill="hsl(26 68% 34%)"/><path d="M204.91 68.8C207.93 80.69 203.63 97.96 193.79 108.48C183.95 118.99 162.9 128.77 145.9 131.88C128.9 134.99 108.06 130.29 91.8 127.14C75.54 124 59.99 119.94 48.32 112.98C36.64 106.03 26.78 95.67 21.74 85.41C16.69 75.16 16.04 63.5 18.06 51.46C20.08 39.41 21.89 21.52 33.86 13.15C45.82 4.78 72.28 0.82 89.87 1.22C107.45 1.62 125.07 9.58 139.37 15.56C153.67 21.55 164.74 28.27 175.66 37.14C186.59 46.01 201.89 56.92 204.91 68.8Z" fill="hsl(32 76% 48%)"/><path d="M157.48 52.96C156.04 59.55 139.55 64.72 130.62 70.71C121.7 76.7 115.75 86.63 103.92 88.93C92.09 91.22 71.59 88.46 59.65 84.49C47.7 80.52 37.71 72.58 32.25 65.12C26.79 57.66 22.18 46.88 26.88 39.73C31.58 32.57 47.58 26.07 60.44 22.2C73.31 18.33 90.93 15.01 104.07 16.51C117.21 18.01 130.38 25.12 139.28 31.19C148.18 37.27 158.92 46.38 157.48 52.96Z" fill="hsl(38 84% 62%)" opacity="0.55"/><circle cx="98.49" cy="102.69" r="5.44" fill="hsl(24 62% 22% / 0.9)" opacity="0.35"/><circle cx="111.26" cy="67.18" r="5.44" fill="hsl(24 62% 22% / 0.9)" opacity="0.54"/><circle cx="87.29" cy="85.86" r="6.26" fill="hsl(24 62% 22% / 0.9)" opacity="0.36"/><circle cx="144.93" cy="72.68" r="2.95" fill="hsl(24 62% 22% / 0.9)" opacity="0.33"/><circle cx="96.73" cy="17.57" r="4.01" fill="hsl(24 62% 22% / 0.9)" opacity="0.23"/><circle cx="81.87" cy="44.02" r="5.96" fill="hsl(24 62% 22% / 0.9)" opacity="0.24"/><circle cx="73.55" cy="113.36" r="4.36" fill="hsl(24 62% 22% / 0.9)" opacity="0.22"/><circle cx="90.2" cy="72.24" r="4.85" fill="hsl(24 62% 22% / 0.9)" opacity="0.24"/><circle cx="110.56" cy="88.91" r="3.34" fill="hsl(24 62% 22% / 0.9)" opacity="0.39"/><circle cx="87.56" cy="110.7" r="5.43" fill="hsl(24 62% 22% / 0.9)" opacity="0.37"/><circle cx="93.16" cy="28.54" r="4.26" fill="hsl(24 62% 22% / 0.9)" opacity="0.41"/><circle cx="111.41" cy="25.05" r="4.17" fill="hsl(24 62% 22% / 0.9)" opacity="0.24"/><circle cx="93.11" cy="114.29" r="4.02" fill="hsl(24 62% 22% / 0.9)" opacity="0.48"/><circle cx="115.53" cy="68.72" r="5.08" fill="hsl(24 62% 22% / 0.9)" opacity="0.36"/></g><path d="M198.83 68.8C198.06 81.17 182.11 94.66 168.98 104.63C155.86 114.6 137.66 126.88 120.05 128.62C102.45 130.36 79.62 121.79 63.34 115.07C47.06 108.36 28.33 99.07 22.39 88.32C16.45 77.57 22 62.8 27.7 50.56C33.41 38.32 41.44 20.96 56.6 14.87C71.77 8.79 99.19 11.46 118.7 14.05C138.2 16.64 160.27 21.3 173.62 30.42C186.98 39.55 199.6 56.44 198.83 68.8Z" fill="hsl(8 78% 42%)" opacity="0.62"/><ellipse cx="25.28" cy="95.2" rx="20" ry="13" fill="hsl(38 30% 84%)" transform="rotate(-13.75 104 68.8)"/><ellipse cx="210" cy="137.92" rx="62" ry="23.56" fill="hsl(30 10% 88%)"/><ellipse cx="210" cy="128" rx="62" ry="23.56" fill="hsl(30 8% 94%)"/><ellipse cx="210" cy="128" rx="48.36" ry="17.36" fill="hsl(34 84% 60%)"/></g>
<rect width="1200" height="750" fill="url(#topSheen)"/>
<rect width="1200" height="750" fill="url(#vignette)"/>
</svg>
