<svg xmlns="http://www.w3.org/2000/svg" viewBox="0 0 1200 750" width="1200" height="750">
<defs>
<radialGradient id="ground" cx="50%" cy="32%" r="84%">
<stop offset="0%" stop-color="hsl(39.82 33% 17%)"/>
<stop offset="58%" stop-color="hsl(39.82 26% 10%)"/>
<stop offset="100%" stop-color="hsl(39.82 22% 6%)"/>
</radialGradient>
<radialGradient id="keyLight" cx="50%" cy="44%" r="50%">
<stop offset="0%" stop-color="hsl(26 96% 58% / 0.34)"/>
<stop offset="55%" stop-color="hsl(20 92% 46% / 0.11560000000000002)"/>
<stop offset="100%" stop-color="hsl(20 90% 40% / 0)"/>
</radialGradient>
<radialGradient id="dishShadow" cx="50%" cy="50%" r="50%">
<stop offset="0%" stop-color="hsl(39.82 60% 3% / 0.6)"/>
<stop offset="100%" stop-color="hsl(39.82 60% 3% / 0)"/>
</radialGradient>
<radialGradient id="vignette" cx="50%" cy="46%" r="72%">
<stop offset="52%" stop-color="hsl(39.82 40% 4% / 0)"/>
<stop offset="100%" stop-color="hsl(39.82 40% 4% / 0.62)"/>
</radialGradient>
<linearGradient id="topSheen" x1="0" y1="0" x2="0" y2="1">
<stop offset="0%" stop-color="hsl(38 100% 72% / 0.11)"/>
<stop offset="45%" stop-color="hsl(38 100% 72% / 0)"/>
</linearGradient>
</defs>
<rect width="1200" height="750" fill="url(#ground)"/>
<ellipse cx="600" cy="375" rx="552" ry="330" fill="url(#keyLight)"/>
<g transform="translate(600 375) scale(1.2)"><ellipse cx="0" cy="168" rx="290" ry="50" fill="url(#dishShadow)"/><ellipse cx="0" cy="150" rx="290" ry="87" fill="hsl(28 12% 20%)"/><ellipse cx="0" cy="141.3" rx="272.6" ry="81.2" fill="hsl(28 14% 31%)"/><ellipse cx="0" cy="138.4" rx="203" ry="55.1" fill="hsl(28 14% 24%)" opacity="0.75"/><g transform="rotate(13.28 -161.38 43.32)"><path d="M-124.93 48.32C-125.21 54.35 -123.58 60.83 -126.68 65.99C-129.79 71.14 -136.82 76.96 -143.55 79.25C-150.28 81.54 -159.43 80.59 -167.07 79.7C-174.71 78.81 -183.96 77.67 -189.38 73.92C-194.8 70.18 -197.94 62.96 -199.62 57.21C-201.29 51.47 -201.14 45.19 -199.4 39.47C-197.67 33.74 -194.52 27.05 -189.21 22.86C-183.9 18.68 -174.65 14.4 -167.54 14.37C-160.43 14.33 -153.67 20.07 -146.58 22.64C-139.49 25.21 -128.6 25.51 -124.99 29.79C-121.38 34.07 -124.65 42.28 -124.93 48.32Z" fill="hsl(26 68% 34%)"/><path d="M-121.66 43.32C-121.06 48.88 -122.53 56.86 -126.81 60.92C-131.09 64.98 -140.58 65.06 -147.35 67.66C-154.11 70.26 -160.82 76.71 -167.41 76.53C-173.99 76.36 -181.21 70.59 -186.84 66.6C-192.47 62.61 -199.52 57.82 -201.16 52.57C-202.81 47.32 -198.98 40.63 -196.71 35.1C-194.44 29.57 -192.55 22.87 -187.54 19.39C-182.53 15.91 -173.58 14.67 -166.66 14.21C-159.74 13.76 -152.05 14.43 -146.01 16.65C-139.97 18.88 -134.47 23.1 -130.41 27.55C-126.35 31.99 -122.26 37.75 -121.66 43.32Z" fill="hsl(32 76% 48%)"/><path d="M-141.69 36C-141.31 39.21 -143.63 43.46 -146.91 46.23C-150.2 49.01 -155.92 51.82 -161.4 52.66C-166.88 53.49 -174.99 53.1 -179.78 51.26C-184.58 49.42 -188.37 45.12 -190.17 41.62C-191.98 38.13 -192.54 33.52 -190.6 30.28C-188.66 27.03 -183.39 23.97 -178.52 22.14C-173.65 20.31 -166.27 18.47 -161.38 19.28C-156.49 20.09 -152.47 24.2 -149.19 26.99C-145.9 29.77 -142.07 32.79 -141.69 36Z" fill="hsl(38 84% 62%)" opacity="0.55"/><circle cx="-183.8" cy="30.58" r="5.41" fill="hsl(24 62% 22% / 0.9)" opacity="0.3"/><circle cx="-145.3" cy="32.43" r="5.31" fill="hsl(24 62% 22% / 0.9)" opacity="0.46"/><circle cx="-192.83" cy="44" r="2.72" fill="hsl(24 62% 22% / 0.9)" opacity="0.32"/><circle cx="-161.37" cy="25.36" r="4.28" fill="hsl(24 62% 22% / 0.9)" opacity="0.43"/><circle cx="-161.79" cy="20.08" r="5.15" fill="hsl(24 62% 22% / 0.9)" opacity="0.27"/><circle cx="-155.36" cy="23.67" r="4.03" fill="hsl(24 62% 22% / 0.9)" opacity="0.39"/><circle cx="-179.43" cy="32.93" r="5.75" fill="hsl(24 62% 22% / 0.9)" opacity="0.22"/><circle cx="-143.47" cy="40.85" r="3.51" fill="hsl(24 62% 22% / 0.9)" opacity="0.42"/><circle cx="-186.73" cy="39.92" r="2.63" fill="hsl(24 62% 22% / 0.9)" opacity="0.46"/><circle cx="-182.33" cy="29.4" r="3.36" fill="hsl(24 62% 22% / 0.9)" opacity="0.25"/><circle cx="-169.32" cy="24.46" r="4.42" fill="hsl(24 62% 22% / 0.9)" opacity="0.5"/><circle cx="-153.34" cy="45.79" r="2.89" fill="hsl(24 62% 22% / 0.9)" opacity="0.24"/><circle cx="-148.73" cy="49.48" r="4.34" fill="hsl(24 62% 22% / 0.9)" opacity="0.41"/><circle cx="-146.54" cy="28.43" r="6.34" fill="hsl(24 62% 22% / 0.9)" opacity="0.29"/></g><g transform="rotate(-33.22 -157.84 101.95)"><path d="M-110.12 106.95C-111 113.75 -118.37 120.33 -123.35 125.9C-128.32 131.46 -133.13 136.93 -139.99 140.35C-146.85 143.77 -156.61 147.16 -164.48 146.43C-172.35 145.69 -182.04 140.92 -187.22 135.92C-192.39 130.92 -193.85 122.89 -195.53 116.41C-197.22 109.93 -198.94 103.21 -197.3 97.05C-195.66 90.9 -191.09 84.81 -185.69 79.49C-180.28 74.17 -172.45 66.01 -164.88 65.11C-157.31 64.21 -148.08 70.75 -140.27 74.08C-132.47 77.41 -123.09 79.63 -118.06 85.11C-113.04 90.59 -109.24 100.16 -110.12 106.95Z" fill="hsl(26 68% 34%)"/><path d="M-112.03 101.95C-111.24 108.47 -115.51 116.65 -119.85 122.82C-124.19 128.98 -130.58 135.45 -138.08 138.93C-145.58 142.4 -156.95 145.27 -164.86 143.65C-172.76 142.04 -179.28 134.34 -185.52 129.25C-191.75 124.16 -199.61 119.48 -202.28 113.1C-204.95 106.73 -203.95 97.78 -201.54 90.99C-199.14 84.2 -193.97 77.37 -187.84 72.37C-181.7 67.37 -172.78 61.74 -164.74 60.97C-156.69 60.2 -146.26 63.97 -139.57 67.76C-132.88 71.55 -129.18 78 -124.59 83.69C-120 89.39 -112.82 95.43 -112.03 101.95Z" fill="hsl(32 76% 48%)"/><path d="M-138.06 92.88C-138.8 97.17 -139.69 101.46 -143.1 104.47C-146.51 107.49 -153.02 110.31 -158.52 110.96C-164.03 111.61 -170.41 110.15 -176.13 108.38C-181.85 106.6 -190.37 104.07 -192.84 100.33C-195.32 96.58 -193.48 90.05 -190.97 85.9C-188.46 81.75 -183.23 77.44 -177.78 75.42C-172.33 73.4 -164.78 73.24 -158.27 73.8C-151.75 74.35 -142.05 75.55 -138.68 78.73C-135.32 81.91 -137.33 88.59 -138.06 92.88Z" fill="hsl(38 84% 62%)" opacity="0.55"/><circle cx="-142.27" cy="124" r="5.03" fill="hsl(24 62% 22% / 0.9)" opacity="0.5"/><circle cx="-189.03" cy="86.39" r="4.19" fill="hsl(24 62% 22% / 0.9)" opacity="0.23"/><circle cx="-157.79" cy="105.58" r="2.52" fill="hsl(24 62% 22% / 0.9)" opacity="0.41"/><circle cx="-187.03" cy="118.98" r="2.9" fill="hsl(24 62% 22% / 0.9)" opacity="0.24"/><circle cx="-170.13" cy="127.48" r="4.65" fill="hsl(24 62% 22% / 0.9)" opacity="0.55"/><circle cx="-125.07" cy="101.6" r="3.71" fill="hsl(24 62% 22% / 0.9)" opacity="0.25"/><circle cx="-168.03" cy="106.37" r="3.19" fill="hsl(24 62% 22% / 0.9)" opacity="0.49"/><circle cx="-127.78" cy="96" r="4.37" fill="hsl(24 62% 22% / 0.9)" opacity="0.4"/><circle cx="-142.41" cy="119.35" r="3.17" fill="hsl(24 62% 22% / 0.9)" opacity="0.49"/><circle cx="-168.96" cy="95.22" r="4.3" fill="hsl(24 62% 22% / 0.9)" opacity="0.29"/><circle cx="-162.41" cy="78.37" r="5.61" fill="hsl(24 62% 22% / 0.9)" opacity="0.33"/><circle cx="-167.8" cy="125.27" r="4.02" fill="hsl(24 62% 22% / 0.9)" opacity="0.45"/><circle cx="-171.4" cy="119.18" r="3.78" fill="hsl(24 62% 22% / 0.9)" opacity="0.35"/><circle cx="-149.39" cy="124.33" r="2.65" fill="hsl(24 62% 22% / 0.9)" opacity="0.43"/></g><g transform="rotate(-29.66 -42.7 56.42)"><path d="M4.05 61.42C4.36 67.73 5.35 75.87 0.78 80.74C-3.8 85.61 -14.9 87.82 -23.4 90.64C-31.91 93.46 -41.82 98.39 -50.24 97.68C-58.65 96.96 -66.79 90.67 -73.9 86.33C-81.02 81.98 -90.18 77.38 -92.92 71.62C-95.66 65.86 -93.46 57.63 -90.33 51.75C-87.2 45.87 -80.89 40.39 -74.12 36.35C-67.36 32.3 -58.55 28.72 -49.75 27.5C-40.95 26.28 -29.42 26.46 -21.3 29.03C-13.19 31.6 -5.3 37.53 -1.08 42.93C3.15 48.33 3.75 55.12 4.05 61.42Z" fill="hsl(26 68% 34%)"/><path d="M8.09 56.42C7.92 61.99 -0.67 67.63 -5.67 72.88C-10.66 78.13 -14.55 85.09 -21.88 87.94C-29.22 90.8 -41.06 91.16 -49.68 90.02C-58.31 88.88 -67.69 85.26 -73.62 81.1C-79.54 76.94 -83.47 70.58 -85.23 65.06C-86.99 59.54 -86.67 53.12 -84.19 48C-81.72 42.87 -76.32 37.68 -70.4 34.32C-64.47 30.96 -56.27 28.72 -48.64 27.84C-41.01 26.96 -31.95 27.11 -24.62 29.05C-17.29 31 -10.09 34.95 -4.64 39.51C0.81 44.07 8.26 50.86 8.09 56.42Z" fill="hsl(32 76% 48%)"/><path d="M-15.77 48.57C-16.63 51.98 -24.48 54.99 -29.09 57.59C-33.7 60.2 -37.94 63.53 -43.43 64.22C-48.92 64.91 -56.92 63.48 -62.02 61.74C-67.11 60 -71.47 56.95 -74.02 53.78C-76.58 50.6 -79.19 45.9 -77.33 42.69C-75.48 39.49 -68.63 36.42 -62.9 34.54C-57.17 32.67 -49.45 31.03 -42.97 31.46C-36.48 31.9 -28.52 34.31 -23.99 37.16C-19.46 40.01 -14.92 45.16 -15.77 48.57Z" fill="hsl(38 84% 62%)" opacity="0.55"/><circle cx="-80.45" cy="59.34" r="2.57" fill="hsl(24 62% 22% / 0.9)" opacity="0.28"/><circle cx="-71.18" cy="42.56" r="4.69" fill="hsl(24 62% 22% / 0.9)" opacity="0.41"/><circle cx="-25.27" cy="51.15" r="6.49" fill="hsl(24 62% 22% / 0.9)" opacity="0.5"/><circle cx="-5.51" cy="61.4" r="4.52" fill="hsl(24 62% 22% / 0.9)" opacity="0.52"/><circle cx="-46.09" cy="50.37" r="3.68" fill="hsl(24 62% 22% / 0.9)" opacity="0.54"/><circle cx="-26.76" cy="43.43" r="3.61" fill="hsl(24 62% 22% / 0.9)" opacity="0.45"/><circle cx="-11.82" cy="60.39" r="5.62" fill="hsl(24 62% 22% / 0.9)" opacity="0.52"/><circle cx="-47.5" cy="39.78" r="2.57" fill="hsl(24 62% 22% / 0.9)" opacity="0.36"/><circle cx="-53.38" cy="38.01" r="5.4" fill="hsl(24 62% 22% / 0.9)" opacity="0.49"/><circle cx="-12.07" cy="66.44" r="2.95" fill="hsl(24 62% 22% / 0.9)" opacity="0.35"/><circle cx="-28.36" cy="70.91" r="4.49" fill="hsl(24 62% 22% / 0.9)" opacity="0.31"/><circle cx="-57.27" cy="48.35" r="4.73" fill="hsl(24 62% 22% / 0.9)" opacity="0.46"/><circle cx="-58.03" cy="65.45" r="5.91" fill="hsl(24 62% 22% / 0.9)" opacity="0.37"/><circle cx="-62.7" cy="72.83" r="5.47" fill="hsl(24 62% 22% / 0.9)" opacity="0.32"/></g><g transform="rotate(15.85 -36.57 57.22)"><path d="M4.71 62.22C3.57 68.19 -3.37 73.41 -7.69 78.23C-12.02 83.06 -15.47 88.12 -21.24 91.19C-27.01 94.25 -35.47 97.2 -42.31 96.64C-49.15 96.07 -57.19 92.02 -62.27 87.81C-67.35 83.6 -70.24 77.39 -72.79 71.4C-75.33 65.4 -78.93 58 -77.54 51.84C-76.15 45.69 -70.27 38.73 -64.44 34.47C-58.61 30.21 -49.65 26.26 -42.56 26.28C-35.48 26.29 -28.87 31.86 -21.93 34.56C-14.98 37.25 -5.32 37.82 -0.88 42.44C3.56 47.05 5.84 56.26 4.71 62.22Z" fill="hsl(26 68% 34%)"/><path d="M6.8 57.22C6.08 63.07 -2.59 68.42 -7.1 73.57C-11.6 78.71 -14.49 85.79 -20.24 88.08C-25.98 90.37 -34.16 87.77 -41.59 87.3C-49.01 86.84 -60.16 88.93 -64.77 85.3C-69.38 81.66 -68.45 71.58 -69.27 65.51C-70.08 59.43 -70.96 54.35 -69.65 48.84C-68.34 43.34 -66.1 36.04 -61.41 32.49C-56.72 28.95 -48.16 28.18 -41.52 27.56C-34.87 26.94 -27.98 26.96 -21.51 28.78C-15.05 30.6 -7.46 33.73 -2.74 38.47C1.97 43.21 7.53 51.37 6.8 57.22Z" fill="hsl(32 76% 48%)"/><path d="M-19.16 49.26C-19.4 53.04 -19.49 57.32 -22.43 60.21C-25.37 63.09 -31.88 66.22 -36.8 66.57C-41.73 66.91 -47.27 64.14 -51.99 62.27C-56.71 60.39 -63.35 58.39 -65.12 55.32C-66.9 52.24 -64.53 47.38 -62.66 43.82C-60.79 40.25 -58.2 35.86 -53.91 33.93C-49.61 32 -42.35 31.64 -36.87 32.23C-31.39 32.82 -23.97 34.64 -21.02 37.48C-18.07 40.32 -18.93 45.47 -19.16 49.26Z" fill="hsl(38 84% 62%)" opacity="0.55"/><circle cx="-31.6" cy="70.42" r="5.24" fill="hsl(24 62% 22% / 0.9)" opacity="0.36"/><circle cx="-24.54" cy="70.3" r="2.82" fill="hsl(24 62% 22% / 0.9)" opacity="0.3"/><circle cx="-49.86" cy="46.54" r="5.37" fill="hsl(24 62% 22% / 0.9)" opacity="0.4"/><circle cx="-27.52" cy="79.66" r="3.83" fill="hsl(24 62% 22% / 0.9)" opacity="0.4"/><circle cx="-51.49" cy="60.25" r="5.88" fill="hsl(24 62% 22% / 0.9)" opacity="0.54"/><circle cx="-13.12" cy="74.12" r="4.4" fill="hsl(24 62% 22% / 0.9)" opacity="0.28"/><circle cx="-49.46" cy="74.66" r="6.16" fill="hsl(24 62% 22% / 0.9)" opacity="0.47"/><circle cx="-28.3" cy="52.53" r="2.57" fill="hsl(24 62% 22% / 0.9)" opacity="0.42"/><circle cx="-34.83" cy="66.46" r="2.7" fill="hsl(24 62% 22% / 0.9)" opacity="0.41"/><circle cx="-25.78" cy="56.37" r="5.69" fill="hsl(24 62% 22% / 0.9)" opacity="0.43"/><circle cx="-11.88" cy="63.25" r="6.13" fill="hsl(24 62% 22% / 0.9)" opacity="0.23"/><circle cx="-34.56" cy="70.69" r="4.62" fill="hsl(24 62% 22% / 0.9)" opacity="0.51"/><circle cx="-67.17" cy="60.19" r="3.25" fill="hsl(24 62% 22% / 0.9)" opacity="0.29"/><circle cx="-38.03" cy="63.66" r="5.33" fill="hsl(24 62% 22% / 0.9)" opacity="0.44"/></g><g transform="rotate(-15.6 116.88 26.37)"><path d="M168.2 31.37C168.57 37.63 160.43 44.43 155.57 50.72C150.7 57.01 146.74 65.43 139.02 69.11C131.3 72.78 117.62 74.83 109.23 72.77C100.84 70.7 95.28 61.8 88.67 56.71C82.05 51.61 72.06 48.05 69.56 42.18C67.06 36.31 71.43 28.38 73.66 21.5C75.89 14.61 76.88 5.42 82.94 0.9C89.01 -3.63 101.32 -5.52 110.04 -5.65C118.75 -5.78 128.01 -3.02 135.22 0.11C142.44 3.24 147.83 7.93 153.32 13.14C158.82 18.35 167.82 25.11 168.2 31.37Z" fill="hsl(26 68% 34%)"/><path d="M166.07 26.37C166.43 33 162.78 41.48 157.69 46.78C152.6 52.08 143.51 55.24 135.54 58.17C127.57 61.1 118.33 64.84 109.86 64.35C101.39 63.87 90.85 59.91 84.73 55.24C78.61 50.58 76.3 43.13 73.13 36.37C69.97 29.61 63.98 21.31 65.75 14.69C67.53 8.07 76.45 1.1 83.79 -3.35C91.13 -7.79 100.72 -10.88 109.79 -11.99C118.86 -13.1 130.58 -13.16 138.21 -9.99C145.84 -6.82 150.9 0.97 155.55 7.03C160.19 13.09 165.71 19.74 166.07 26.37Z" fill="hsl(32 76% 48%)"/><path d="M136.49 17.4C136.64 20.91 134.85 24.83 131.56 28.17C128.26 31.5 122.97 36.14 116.73 37.41C110.5 38.69 99.6 38.13 94.16 35.82C88.72 33.52 86.53 27.85 84.09 23.57C81.64 19.3 77.58 14.03 79.48 10.17C81.38 6.31 89.36 2.28 95.49 0.42C101.62 -1.45 110.42 -2.12 116.28 -1C122.14 0.11 127.28 4.04 130.65 7.11C134.02 10.18 136.33 13.89 136.49 17.4Z" fill="hsl(38 84% 62%)" opacity="0.55"/><circle cx="148.01" cy="38.29" r="4.34" fill="hsl(24 62% 22% / 0.9)" opacity="0.31"/><circle cx="114.5" cy="46.29" r="2.58" fill="hsl(24 62% 22% / 0.9)" opacity="0.36"/><circle cx="96.64" cy="36.88" r="3.06" fill="hsl(24 62% 22% / 0.9)" opacity="0.55"/><circle cx="123.03" cy="26.48" r="6.34" fill="hsl(24 62% 22% / 0.9)" opacity="0.24"/><circle cx="114.02" cy="22.36" r="4.6" fill="hsl(24 62% 22% / 0.9)" opacity="0.52"/><circle cx="139.43" cy="5.06" r="5.6" fill="hsl(24 62% 22% / 0.9)" opacity="0.33"/><circle cx="115.55" cy="46.41" r="2.56" fill="hsl(24 62% 22% / 0.9)" opacity="0.37"/><circle cx="103.74" cy="14.15" r="4.49" fill="hsl(24 62% 22% / 0.9)" opacity="0.29"/><circle cx="125.57" cy="4.92" r="4.76" fill="hsl(24 62% 22% / 0.9)" opacity="0.43"/><circle cx="116.93" cy="26.74" r="5.13" fill="hsl(24 62% 22% / 0.9)" opacity="0.46"/><circle cx="94.54" cy="25.54" r="3.11" fill="hsl(24 62% 22% / 0.9)" opacity="0.48"/><circle cx="144.8" cy="45.85" r="3.3" fill="hsl(24 62% 22% / 0.9)" opacity="0.54"/><circle cx="92.77" cy="32.43" r="3.75" fill="hsl(24 62% 22% / 0.9)" opacity="0.55"/><circle cx="129.01" cy="10.37" r="3.11" fill="hsl(24 62% 22% / 0.9)" opacity="0.42"/></g><g transform="rotate(18.98 -124.72 104.19)"><path d="M-86.08 109.19C-86.53 115.39 -92.6 121.82 -96.66 126.93C-100.73 132.05 -104.85 136.31 -110.48 139.88C-116.11 143.45 -123.9 148.74 -130.44 148.36C-136.99 147.97 -145.24 142.54 -149.73 137.59C-154.21 132.63 -155.91 124.96 -157.33 118.61C-158.75 112.27 -159.72 105.59 -158.27 99.5C-156.81 93.41 -153.31 86.58 -148.62 82.06C-143.92 77.54 -136.43 72.93 -130.1 72.39C-123.77 71.86 -116.67 75.98 -110.65 78.87C-104.62 81.77 -98.05 84.69 -93.96 89.74C-89.86 94.79 -85.63 102.99 -86.08 109.19Z" fill="hsl(26 68% 34%)"/><path d="M-90.7 104.19C-91.28 110.8 -92.15 117.09 -95.11 122.92C-98.07 128.75 -102.74 136.77 -108.48 139.18C-114.23 141.58 -123.2 139.03 -129.57 137.35C-135.93 135.67 -140.96 132.75 -146.65 129.1C-152.35 125.45 -160.94 121.48 -163.74 115.46C-166.53 109.45 -165.42 100 -163.42 93.01C-161.41 86.03 -157.3 77.42 -151.69 73.57C-146.08 69.72 -137.13 71.03 -129.73 69.89C-122.34 68.75 -113.68 64.49 -107.33 66.72C-100.98 68.95 -94.42 77.04 -91.65 83.28C-88.88 89.53 -90.13 97.59 -90.7 104.19Z" fill="hsl(32 76% 48%)"/><path d="M-109.71 95.19C-109.09 99.31 -106.3 105.5 -108.83 108.81C-111.36 112.12 -119.4 114.45 -124.89 115.03C-130.37 115.61 -136.81 114.38 -141.74 112.28C-146.67 110.18 -153.07 106.31 -154.47 102.45C-155.86 98.6 -152.16 93.36 -150.13 89.17C-148.11 84.98 -146.44 79.31 -142.3 77.31C-138.16 75.31 -130.25 76.04 -125.29 77.16C-120.34 78.29 -115.19 81.06 -112.59 84.06C-110 87.07 -110.34 91.06 -109.71 95.19Z" fill="hsl(38 84% 62%)" opacity="0.55"/><circle cx="-118.9" cy="133.95" r="3.94" fill="hsl(24 62% 22% / 0.9)" opacity="0.37"/><circle cx="-108.95" cy="87.89" r="6.33" fill="hsl(24 62% 22% / 0.9)" opacity="0.44"/><circle cx="-108.42" cy="104.48" r="4.64" fill="hsl(24 62% 22% / 0.9)" opacity="0.47"/><circle cx="-126.88" cy="134.51" r="2.75" fill="hsl(24 62% 22% / 0.9)" opacity="0.4"/><circle cx="-122.17" cy="121.57" r="5.04" fill="hsl(24 62% 22% / 0.9)" opacity="0.36"/><circle cx="-95.05" cy="105.14" r="5.62" fill="hsl(24 62% 22% / 0.9)" opacity="0.26"/><circle cx="-129.59" cy="101.58" r="4.91" fill="hsl(24 62% 22% / 0.9)" opacity="0.45"/><circle cx="-119.92" cy="90.81" r="3.33" fill="hsl(24 62% 22% / 0.9)" opacity="0.49"/><circle cx="-118.81" cy="113.59" r="5.8" fill="hsl(24 62% 22% / 0.9)" opacity="0.48"/><circle cx="-121.8" cy="83.03" r="3.2" fill="hsl(24 62% 22% / 0.9)" opacity="0.26"/><circle cx="-112.59" cy="120.03" r="6.18" fill="hsl(24 62% 22% / 0.9)" opacity="0.26"/><circle cx="-113.5" cy="85.92" r="3.03" fill="hsl(24 62% 22% / 0.9)" opacity="0.33"/><circle cx="-136.65" cy="76.07" r="5.71" fill="hsl(24 62% 22% / 0.9)" opacity="0.25"/><circle cx="-143.37" cy="128.65" r="2.91" fill="hsl(24 62% 22% / 0.9)" opacity="0.35"/></g><g transform="rotate(-15.76 74.75 95.47)"><path d="M118.57 100.47C118.49 106.01 114.36 112.48 109.87 116.99C105.38 121.5 98.59 124.6 91.62 127.51C84.66 130.43 75.04 135.46 68.06 134.48C61.08 133.49 54.78 125.93 49.75 121.58C44.71 117.24 40.8 113.44 37.85 108.4C34.91 103.35 30.52 96.51 32.07 91.3C33.61 86.09 40.95 80.52 47.1 77.12C53.24 73.72 61.53 71.5 68.94 70.9C76.35 70.31 84.65 71.41 91.55 73.54C98.46 75.68 105.86 79.23 110.36 83.72C114.86 88.21 118.66 94.93 118.57 100.47Z" fill="hsl(26 68% 34%)"/><path d="M113.67 95.47C113.57 101.69 117.5 108.98 114.14 114C110.79 119.01 101.17 123.18 93.53 125.57C85.89 127.96 75.64 129.79 68.29 128.33C60.94 126.88 54.33 121.03 49.46 116.83C44.59 112.63 41.33 108.09 39.06 103.14C36.8 98.19 34.64 92.37 35.88 87.12C37.13 81.87 41.12 75.6 46.55 71.66C51.98 67.71 61.04 63.81 68.45 63.43C75.87 63.05 83.32 67.16 91.04 69.36C98.76 71.57 110.98 72.31 114.75 76.66C118.52 81.01 113.77 89.25 113.67 95.47Z" fill="hsl(32 76% 48%)"/><path d="M96.03 88.06C96.06 91.2 92.6 95.38 88.86 97.55C85.12 99.73 79.29 100.1 73.57 101.09C67.86 102.08 58.61 104.94 54.58 103.49C50.55 102.04 51.15 95.9 49.41 92.41C47.66 88.92 42.75 85.35 44.11 82.56C45.48 79.78 52.64 77.1 57.59 75.7C62.55 74.3 68.65 73.67 73.83 74.17C79.01 74.66 84.96 76.35 88.65 78.66C92.35 80.98 95.99 84.91 96.03 88.06Z" fill="hsl(38 84% 62%)" opacity="0.55"/><circle cx="81.96" cy="72.83" r="5.01" fill="hsl(24 62% 22% / 0.9)" opacity="0.48"/><circle cx="42.8" cy="103.59" r="5.04" fill="hsl(24 62% 22% / 0.9)" opacity="0.36"/><circle cx="49.73" cy="84.29" r="3" fill="hsl(24 62% 22% / 0.9)" opacity="0.42"/><circle cx="65.84" cy="92.78" r="4.6" fill="hsl(24 62% 22% / 0.9)" opacity="0.23"/><circle cx="77.1" cy="118.87" r="2.74" fill="hsl(24 62% 22% / 0.9)" opacity="0.44"/><circle cx="103.6" cy="108.15" r="3.09" fill="hsl(24 62% 22% / 0.9)" opacity="0.49"/><circle cx="76.28" cy="82.97" r="3.54" fill="hsl(24 62% 22% / 0.9)" opacity="0.29"/><circle cx="107.68" cy="99.68" r="4.81" fill="hsl(24 62% 22% / 0.9)" opacity="0.53"/><circle cx="86.65" cy="107.33" r="4.59" fill="hsl(24 62% 22% / 0.9)" opacity="0.27"/><circle cx="83.66" cy="102.26" r="5.22" fill="hsl(24 62% 22% / 0.9)" opacity="0.25"/><circle cx="70.24" cy="84.49" r="3.81" fill="hsl(24 62% 22% / 0.9)" opacity="0.46"/><circle cx="47.15" cy="109.01" r="5.49" fill="hsl(24 62% 22% / 0.9)" opacity="0.52"/><circle cx="53.65" cy="106.44" r="2.63" fill="hsl(24 62% 22% / 0.9)" opacity="0.31"/><circle cx="97.25" cy="95.81" r="4.81" fill="hsl(24 62% 22% / 0.9)" opacity="0.37"/></g><g transform="rotate(-2.35 12.84 55.68)"><path d="M65.25 60.68C65.89 66.2 59.81 73.65 54.16 78.07C48.51 82.49 39.33 85.13 31.35 87.22C23.36 89.31 14.59 91.08 6.26 90.62C-2.06 90.16 -12.06 87.97 -18.61 84.45C-25.17 80.93 -29.62 75.13 -33.06 69.5C-36.49 63.87 -42.16 55.69 -39.21 50.67C-36.27 45.64 -22.78 43.4 -15.36 39.36C-7.94 35.32 -2.83 27.79 5.31 26.4C13.46 25.01 26.02 27.93 33.52 31.02C41.02 34.1 45.03 39.95 50.32 44.9C55.61 49.84 64.61 55.15 65.25 60.68Z" fill="hsl(26 68% 34%)"/><path d="M62.68 55.68C63.45 61.72 62.95 69.67 58.2 74.77C53.44 79.87 42.91 84.07 34.17 86.27C25.43 88.47 14.35 89.26 5.75 87.98C-2.86 86.7 -11.27 82.55 -17.47 78.59C-23.67 74.62 -29.12 69.44 -31.46 64.2C-33.8 58.95 -34.1 52.19 -31.51 47.15C-28.92 42.11 -22.25 37.32 -15.91 33.95C-9.57 30.57 -1.52 27.92 6.52 26.89C14.55 25.86 24.44 25.84 32.29 27.78C40.14 29.71 48.54 33.86 53.61 38.51C58.67 43.16 61.92 49.63 62.68 55.68Z" fill="hsl(32 76% 48%)"/><path d="M33.73 48.07C33.51 51.38 32.39 55.18 28.78 57.71C25.18 60.24 18.44 62.35 12.09 63.23C5.75 64.11 -4.54 64.77 -9.28 62.99C-14.03 61.22 -13.82 56.07 -16.37 52.57C-18.93 49.07 -25.83 45.19 -24.61 41.99C-23.39 38.79 -15.24 35.09 -9.05 33.36C-2.86 31.62 6.02 30.82 12.54 31.57C19.06 32.32 26.56 35.1 30.09 37.85C33.62 40.6 33.95 44.76 33.73 48.07Z" fill="hsl(38 84% 62%)" opacity="0.55"/><circle cx="-8.98" cy="73.05" r="2.52" fill="hsl(24 62% 22% / 0.9)" opacity="0.26"/><circle cx="17.18" cy="63.14" r="3.84" fill="hsl(24 62% 22% / 0.9)" opacity="0.52"/><circle cx="-1.52" cy="34.48" r="5.11" fill="hsl(24 62% 22% / 0.9)" opacity="0.22"/><circle cx="14.65" cy="56.97" r="4.11" fill="hsl(24 62% 22% / 0.9)" opacity="0.28"/><circle cx="-15.16" cy="64.29" r="4.4" fill="hsl(24 62% 22% / 0.9)" opacity="0.48"/><circle cx="35.59" cy="36.72" r="3.34" fill="hsl(24 62% 22% / 0.9)" opacity="0.27"/><circle cx="-1.58" cy="32.48" r="2.64" fill="hsl(24 62% 22% / 0.9)" opacity="0.37"/><circle cx="-10.26" cy="38.59" r="2.87" fill="hsl(24 62% 22% / 0.9)" opacity="0.47"/><circle cx="0.99" cy="39.37" r="5.32" fill="hsl(24 62% 22% / 0.9)" opacity="0.42"/><circle cx="-18.35" cy="60.2" r="4.69" fill="hsl(24 62% 22% / 0.9)" opacity="0.52"/><circle cx="1.6" cy="37.87" r="5.09" fill="hsl(24 62% 22% / 0.9)" opacity="0.5"/><circle cx="9.96" cy="51.32" r="2.92" fill="hsl(24 62% 22% / 0.9)" opacity="0.46"/><circle cx="7.32" cy="65.09" r="3.7" fill="hsl(24 62% 22% / 0.9)" opacity="0.47"/><circle cx="26.64" cy="43.69" r="5.2" fill="hsl(24 62% 22% / 0.9)" opacity="0.54"/></g><g transform="rotate(-32.66 -101.01 46.19)"><path d="M-61.99 51.19C-61.87 57.21 -62.48 64.34 -66.12 69.44C-69.76 74.54 -77.05 79.33 -83.84 81.79C-90.63 84.25 -99.96 85.53 -106.85 84.21C-113.73 82.88 -120.21 77.95 -125.15 73.86C-130.09 69.77 -134 65 -136.48 59.66C-138.97 54.33 -141.31 47.65 -140.06 41.85C-138.82 36.06 -134.63 28.41 -129.02 24.88C-123.41 21.35 -113.58 20.74 -106.41 20.66C-99.23 20.57 -92.57 22.28 -85.98 24.39C-79.38 26.5 -70.85 28.85 -66.85 33.32C-62.85 37.78 -62.11 45.17 -61.99 51.19Z" fill="hsl(26 68% 34%)"/><path d="M-57.14 46.19C-57.63 51.91 -64.81 58.17 -69.64 62.6C-74.46 67.03 -79.84 69.62 -86.11 72.75C-92.37 75.87 -100.73 82.01 -107.22 81.35C-113.72 80.7 -120.16 73.24 -125.09 68.8C-130.01 64.36 -134.39 60.04 -136.79 54.74C-139.19 49.43 -141.62 42.01 -139.48 36.99C-137.35 31.98 -129.44 28.32 -123.95 24.64C-118.46 20.96 -113.1 16.2 -106.54 14.91C-99.97 13.62 -91.21 14.67 -84.57 16.89C-77.93 19.11 -71.27 23.35 -66.7 28.24C-62.13 33.12 -56.65 40.46 -57.14 46.19Z" fill="hsl(32 76% 48%)"/><path d="M-83.29 38.36C-83.42 41.37 -86.72 44.8 -89.85 47.16C-92.97 49.51 -97.05 51.31 -102.03 52.48C-107.01 53.64 -115.87 55.74 -119.72 54.16C-123.56 52.57 -122.94 46.67 -125.11 42.97C-127.28 39.26 -133.98 34.96 -132.75 31.92C-131.53 28.89 -122.98 26.37 -117.77 24.77C-112.57 23.17 -106.31 21.61 -101.52 22.33C-96.72 23.05 -92.06 26.44 -89.03 29.11C-85.99 31.78 -83.15 35.35 -83.29 38.36Z" fill="hsl(38 84% 62%)" opacity="0.55"/><circle cx="-122.39" cy="66.19" r="3.69" fill="hsl(24 62% 22% / 0.9)" opacity="0.39"/><circle cx="-80.5" cy="54.39" r="3.46" fill="hsl(24 62% 22% / 0.9)" opacity="0.51"/><circle cx="-109.42" cy="26.51" r="5.2" fill="hsl(24 62% 22% / 0.9)" opacity="0.45"/><circle cx="-124.95" cy="64.4" r="4.15" fill="hsl(24 62% 22% / 0.9)" opacity="0.36"/><circle cx="-105.06" cy="45.6" r="2.95" fill="hsl(24 62% 22% / 0.9)" opacity="0.36"/><circle cx="-131.09" cy="56.47" r="3.34" fill="hsl(24 62% 22% / 0.9)" opacity="0.22"/><circle cx="-83.97" cy="48.81" r="5.86" fill="hsl(24 62% 22% / 0.9)" opacity="0.24"/><circle cx="-104.93" cy="61.24" r="4.96" fill="hsl(24 62% 22% / 0.9)" opacity="0.41"/><circle cx="-69.23" cy="41.31" r="5.13" fill="hsl(24 62% 22% / 0.9)" opacity="0.34"/><circle cx="-119.72" cy="39.13" r="4.33" fill="hsl(24 62% 22% / 0.9)" opacity="0.23"/><circle cx="-77.18" cy="55.37" r="4.96" fill="hsl(24 62% 22% / 0.9)" opacity="0.29"/><circle cx="-69.41" cy="47.21" r="3.87" fill="hsl(24 62% 22% / 0.9)" opacity="0.49"/><circle cx="-114.39" cy="58.74" r="5.13" fill="hsl(24 62% 22% / 0.9)" opacity="0.46"/><circle cx="-95.13" cy="27.71" r="3.21" fill="hsl(24 62% 22% / 0.9)" opacity="0.52"/></g><g transform="rotate(26.64 86.08 18.53)"><path d="M132.4 23.53C131.72 31.07 132.16 38.96 127.93 45.09C123.71 51.22 115.3 56.75 107.05 60.32C98.79 63.88 87.16 67.72 78.38 66.48C69.6 65.23 61.64 58.01 54.37 52.86C47.1 47.72 38.27 42.56 34.77 35.61C31.26 28.65 30.47 18.38 33.35 11.12C36.22 3.85 44.4 -3.51 52.01 -7.98C59.63 -12.46 69.78 -14.67 79.04 -15.71C88.31 -16.75 98.76 -16.8 107.59 -14.21C116.42 -11.61 127.88 -6.42 132.02 -0.13C136.15 6.16 133.08 15.99 132.4 23.53Z" fill="hsl(26 68% 34%)"/><path d="M140.61 18.53C141.72 25.66 136.3 35.12 130.92 41.62C125.53 48.13 116.88 55.41 108.33 57.57C99.78 59.73 88.12 56.65 79.62 54.59C71.11 52.52 65.07 49.09 57.28 45.17C49.5 41.25 35.98 37.33 32.92 31.04C29.86 24.75 35.33 14.39 38.93 7.43C42.52 0.48 47.92 -5.42 54.5 -10.68C61.09 -15.94 69.51 -22.55 78.43 -24.11C87.36 -25.67 100.42 -23.86 108.06 -20.04C115.7 -16.21 118.86 -7.57 124.28 -1.15C129.71 5.28 139.51 11.4 140.61 18.53Z" fill="hsl(32 76% 48%)"/><path d="M112.41 9.01C112.96 12.95 108.11 18.67 103.56 21.71C99.01 24.74 91.49 26.56 85.11 27.22C78.73 27.88 71.15 27.51 65.27 25.66C59.4 23.81 52.56 20.13 49.86 16.14C47.16 12.14 46.65 5.84 49.05 1.7C51.46 -2.45 58.12 -6.32 64.29 -8.74C70.46 -11.16 80.1 -13.96 86.1 -12.82C92.1 -11.69 95.89 -5.55 100.28 -1.91C104.66 1.73 111.87 5.07 112.41 9.01Z" fill="hsl(38 84% 62%)" opacity="0.55"/><circle cx="124.89" cy="25.97" r="5.88" fill="hsl(24 62% 22% / 0.9)" opacity="0.51"/><circle cx="112.05" cy="15.35" r="5.46" fill="hsl(24 62% 22% / 0.9)" opacity="0.55"/><circle cx="50.86" cy="32.55" r="4.85" fill="hsl(24 62% 22% / 0.9)" opacity="0.32"/><circle cx="48.74" cy="29.24" r="5.73" fill="hsl(24 62% 22% / 0.9)" opacity="0.41"/><circle cx="58.6" cy="41.1" r="2.74" fill="hsl(24 62% 22% / 0.9)" opacity="0.41"/><circle cx="59.09" cy="4.01" r="2.56" fill="hsl(24 62% 22% / 0.9)" opacity="0.48"/><circle cx="73.25" cy="18.88" r="5.77" fill="hsl(24 62% 22% / 0.9)" opacity="0.27"/><circle cx="80.42" cy="49.19" r="4.14" fill="hsl(24 62% 22% / 0.9)" opacity="0.42"/><circle cx="121.69" cy="14.49" r="3.96" fill="hsl(24 62% 22% / 0.9)" opacity="0.3"/><circle cx="72.16" cy="8.46" r="3.26" fill="hsl(24 62% 22% / 0.9)" opacity="0.41"/><circle cx="104.89" cy="-5.39" r="5.17" fill="hsl(24 62% 22% / 0.9)" opacity="0.53"/><circle cx="80.7" cy="14.41" r="5.36" fill="hsl(24 62% 22% / 0.9)" opacity="0.28"/><circle cx="56.72" cy="39.91" r="2.89" fill="hsl(24 62% 22% / 0.9)" opacity="0.25"/><circle cx="74.46" cy="12.7" r="3.07" fill="hsl(24 62% 22% / 0.9)" opacity="0.24"/></g><g transform="rotate(22.75 22.58 27.19)"><path d="M60.81 32.19C60.22 38.39 54.46 43.65 50.96 49.69C47.47 55.73 45.47 65.28 39.83 68.43C34.19 71.58 23.81 70.41 17.13 68.59C10.44 66.77 5.19 61.77 -0.28 57.51C-5.75 53.24 -12.53 49.17 -15.7 42.98C-18.88 36.79 -21.08 27.31 -19.33 20.39C-17.57 13.47 -11.33 4.97 -5.17 1.47C1 -2.03 10.47 -0.36 17.66 -0.63C24.86 -0.91 31.86 -2.37 37.99 -0.18C44.13 2.01 50.69 7.12 54.49 12.52C58.3 17.92 61.4 26 60.81 32.19Z" fill="hsl(26 68% 34%)"/><path d="M62.33 27.19C62.3 33.57 57.73 41.21 53.51 46.26C49.29 51.31 43.08 54.57 37.01 57.5C30.94 60.42 24.03 63.84 17.1 63.81C10.16 63.77 0.06 61.83 -4.61 57.3C-9.27 52.77 -8.47 43.6 -10.9 36.63C-13.33 29.65 -20.54 21.66 -19.17 15.43C-17.79 9.21 -8.63 3.77 -2.64 -0.74C3.34 -5.24 9.93 -10.72 16.77 -11.6C23.61 -12.47 32.23 -9.26 38.38 -5.99C44.53 -2.72 49.68 2.49 53.68 8.02C57.67 13.55 62.36 20.82 62.33 27.19Z" fill="hsl(32 76% 48%)"/><path d="M44.99 18.29C45.91 22.31 42.94 28.54 39.25 32.12C35.55 35.69 28.31 39.47 22.83 39.74C17.36 40.01 11.62 36.09 6.4 33.76C1.18 31.42 -6.89 29.29 -8.47 25.73C-10.06 22.16 -5.35 16.49 -3.11 12.36C-0.86 8.24 0.88 2.76 5.02 0.97C9.16 -0.82 16.95 0.44 21.74 1.61C26.53 2.79 29.88 5.24 33.76 8.02C37.63 10.8 44.08 14.27 44.99 18.29Z" fill="hsl(38 84% 62%)" opacity="0.55"/><circle cx="43.19" cy="39.78" r="3.55" fill="hsl(24 62% 22% / 0.9)" opacity="0.43"/><circle cx="14.11" cy="40.37" r="2.55" fill="hsl(24 62% 22% / 0.9)" opacity="0.35"/><circle cx="32.02" cy="53.73" r="5.57" fill="hsl(24 62% 22% / 0.9)" opacity="0.36"/><circle cx="8.83" cy="10.74" r="3.33" fill="hsl(24 62% 22% / 0.9)" opacity="0.46"/><circle cx="29.58" cy="12.51" r="3.27" fill="hsl(24 62% 22% / 0.9)" opacity="0.42"/><circle cx="29.11" cy="33.52" r="4.43" fill="hsl(24 62% 22% / 0.9)" opacity="0.47"/><circle cx="15.23" cy="16.53" r="4.3" fill="hsl(24 62% 22% / 0.9)" opacity="0.25"/><circle cx="-4.99" cy="23.72" r="5.53" fill="hsl(24 62% 22% / 0.9)" opacity="0.24"/><circle cx="45.24" cy="18.37" r="5.94" fill="hsl(24 62% 22% / 0.9)" opacity="0.34"/><circle cx="9.46" cy="51.28" r="3.15" fill="hsl(24 62% 22% / 0.9)" opacity="0.32"/><circle cx="4.2" cy="49.38" r="5.8" fill="hsl(24 62% 22% / 0.9)" opacity="0.36"/><circle cx="-0.17" cy="35.21" r="3.87" fill="hsl(24 62% 22% / 0.9)" opacity="0.43"/><circle cx="23.95" cy="49.81" r="5.17" fill="hsl(24 62% 22% / 0.9)" opacity="0.34"/><circle cx="29.4" cy="26.31" r="5.14" fill="hsl(24 62% 22% / 0.9)" opacity="0.38"/></g><g transform="rotate(-9.08 -141.74 44.49)"><path d="M-103.29 49.49C-103.42 56.62 -102.87 64.99 -106.52 70.64C-110.16 76.3 -118.37 81.03 -125.15 83.42C-131.93 85.81 -139.56 85.38 -147.2 84.98C-154.83 84.57 -164.72 84.94 -170.94 80.98C-177.16 77.03 -182.8 68.29 -184.53 61.23C-186.26 54.18 -183.87 45.52 -181.31 38.63C-178.75 31.74 -174.72 24.93 -169.18 19.9C-163.63 14.87 -155.57 9.57 -148.05 8.47C-140.53 7.37 -131.11 10.08 -124.05 13.31C-117 16.54 -109.17 21.83 -105.71 27.86C-102.25 33.89 -103.15 42.36 -103.29 49.49Z" fill="hsl(26 68% 34%)"/><path d="M-97.29 44.49C-96.28 51.61 -98.79 61.47 -103.18 67.65C-107.57 73.82 -116.35 79.85 -123.63 81.54C-130.91 83.22 -139.74 79.53 -146.86 77.78C-153.97 76.03 -161.27 74.95 -166.33 71.02C-171.4 67.1 -174.99 60.4 -177.24 54.23C-179.48 48.07 -181.35 40.39 -179.82 34.04C-178.28 27.69 -173.49 20.12 -168.03 16.14C-162.56 12.16 -154.35 11.45 -147.02 10.14C-139.69 8.83 -130.34 5.8 -124.03 8.27C-117.73 10.74 -113.67 18.92 -109.21 24.96C-104.75 31 -98.29 37.38 -97.29 44.49Z" fill="hsl(32 76% 48%)"/><path d="M-120.83 35.39C-120.62 38.95 -125.45 43.6 -129.07 46.47C-132.7 49.35 -137.19 51.25 -142.58 52.61C-147.96 53.97 -156.78 56.45 -161.37 54.66C-165.97 52.87 -168.55 46.17 -170.16 41.85C-171.76 37.52 -172.61 32.8 -171 28.7C-169.4 24.59 -165.4 19.46 -160.55 17.19C-155.69 14.93 -146.91 13.82 -141.87 15.13C-136.83 16.44 -133.8 21.7 -130.3 25.07C-126.79 28.45 -121.03 31.82 -120.83 35.39Z" fill="hsl(38 84% 62%)" opacity="0.55"/><circle cx="-157.95" cy="65.33" r="4.79" fill="hsl(24 62% 22% / 0.9)" opacity="0.35"/><circle cx="-111.04" cy="32.78" r="6.2" fill="hsl(24 62% 22% / 0.9)" opacity="0.45"/><circle cx="-144.88" cy="34.41" r="2.93" fill="hsl(24 62% 22% / 0.9)" opacity="0.4"/><circle cx="-144.51" cy="18.4" r="3.92" fill="hsl(24 62% 22% / 0.9)" opacity="0.53"/><circle cx="-126.72" cy="54.04" r="4.44" fill="hsl(24 62% 22% / 0.9)" opacity="0.54"/><circle cx="-127.1" cy="67.31" r="4.1" fill="hsl(24 62% 22% / 0.9)" opacity="0.54"/><circle cx="-156.52" cy="47.32" r="4.62" fill="hsl(24 62% 22% / 0.9)" opacity="0.52"/><circle cx="-167.27" cy="48.78" r="5.48" fill="hsl(24 62% 22% / 0.9)" opacity="0.33"/><circle cx="-133.15" cy="18.96" r="5.14" fill="hsl(24 62% 22% / 0.9)" opacity="0.39"/><circle cx="-151.5" cy="65.59" r="4.52" fill="hsl(24 62% 22% / 0.9)" opacity="0.52"/><circle cx="-115.3" cy="54.77" r="3.79" fill="hsl(24 62% 22% / 0.9)" opacity="0.48"/><circle cx="-144.88" cy="46.3" r="5.4" fill="hsl(24 62% 22% / 0.9)" opacity="0.36"/><circle cx="-149.74" cy="69.93" r="4.37" fill="hsl(24 62% 22% / 0.9)" opacity="0.37"/><circle cx="-140.24" cy="66.31" r="3.01" fill="hsl(24 62% 22% / 0.9)" opacity="0.38"/></g><g transform="rotate(16.94 174.12 82.66)"><path d="M220.21 87.66C219.59 94.1 217.3 100.97 212.78 106.11C208.25 111.24 200.8 114.87 193.06 118.47C185.33 122.07 174.8 128.32 166.37 127.7C157.94 127.09 149.85 119.56 142.48 114.77C135.11 109.99 124.6 105.19 122.15 98.99C119.7 92.79 123.97 83.6 127.77 77.55C131.58 71.49 138.53 67.68 144.96 62.66C151.38 57.63 158.05 48.76 166.32 47.38C174.59 46 186.22 51.04 194.58 54.38C202.93 57.73 212.19 61.9 216.46 67.44C220.73 72.99 220.82 81.21 220.21 87.66Z" fill="hsl(26 68% 34%)"/><path d="M221.14 82.66C222.5 89.09 223.38 98.88 218.64 103.91C213.89 108.94 201.15 110.96 192.68 112.85C184.21 114.73 176.26 115.67 167.81 115.23C159.36 114.79 149.46 113.77 141.98 110.21C134.5 106.64 124.95 100.03 122.9 93.83C120.86 87.62 126.5 79.41 129.69 72.97C132.88 66.52 135.82 59.74 142.02 55.14C148.23 50.54 158.42 45.88 166.9 45.37C175.39 44.85 185.67 48.73 192.93 52.06C200.2 55.38 205.78 60.2 210.48 65.3C215.18 70.4 219.78 76.22 221.14 82.66Z" fill="hsl(32 76% 48%)"/><path d="M203.43 73.84C203.56 77.23 193.88 81.51 188.8 84.2C183.71 86.89 179.22 88.72 172.93 89.96C166.64 91.2 156.81 93.23 151.04 91.63C145.26 90.03 139.87 84.3 138.26 80.36C136.65 76.42 138.89 71.66 141.39 68C143.89 64.33 147.86 60.55 153.26 58.35C158.66 56.16 167.98 53.93 173.77 54.85C179.57 55.77 183.09 60.7 188.03 63.86C192.98 67.03 203.3 70.45 203.43 73.84Z" fill="hsl(38 84% 62%)" opacity="0.55"/><circle cx="194.37" cy="98.05" r="3.76" fill="hsl(24 62% 22% / 0.9)" opacity="0.5"/><circle cx="155.47" cy="99.84" r="6.16" fill="hsl(24 62% 22% / 0.9)" opacity="0.53"/><circle cx="142.21" cy="78.23" r="5.85" fill="hsl(24 62% 22% / 0.9)" opacity="0.43"/><circle cx="171.84" cy="99.43" r="3.94" fill="hsl(24 62% 22% / 0.9)" opacity="0.31"/><circle cx="166.32" cy="109.97" r="2.82" fill="hsl(24 62% 22% / 0.9)" opacity="0.41"/><circle cx="197.86" cy="94.11" r="4.33" fill="hsl(24 62% 22% / 0.9)" opacity="0.54"/><circle cx="166.35" cy="95.59" r="3.39" fill="hsl(24 62% 22% / 0.9)" opacity="0.24"/><circle cx="175.68" cy="68.98" r="3.63" fill="hsl(24 62% 22% / 0.9)" opacity="0.53"/><circle cx="210.48" cy="86.86" r="4.65" fill="hsl(24 62% 22% / 0.9)" opacity="0.53"/><circle cx="173.76" cy="96.71" r="3.54" fill="hsl(24 62% 22% / 0.9)" opacity="0.5"/><circle cx="188.58" cy="81.87" r="2.93" fill="hsl(24 62% 22% / 0.9)" opacity="0.5"/><circle cx="198.82" cy="92.54" r="2.52" fill="hsl(24 62% 22% / 0.9)" opacity="0.49"/><circle cx="180.32" cy="78.1" r="3.05" fill="hsl(24 62% 22% / 0.9)" opacity="0.23"/><circle cx="183.64" cy="55.8" r="4.19" fill="hsl(24 62% 22% / 0.9)" opacity="0.29"/></g><g transform="rotate(-37.57 -17.98 10.31)"><path d="M37.28 15.31C35.74 22.6 24.82 28.47 19.12 34.75C13.43 41.03 10.38 50.16 3.13 52.98C-4.13 55.81 -15.28 52.72 -24.4 51.7C-33.52 50.69 -44.88 51.12 -51.57 46.91C-58.26 42.7 -63.2 33.38 -64.55 26.46C-65.9 19.53 -62.71 11.63 -59.67 5.34C-56.62 -0.96 -52.09 -6.5 -46.29 -11.31C-40.48 -16.13 -32.8 -22.25 -24.84 -23.58C-16.89 -24.92 -7.44 -21.77 1.43 -19.33C10.3 -16.89 22.39 -14.74 28.37 -8.97C34.34 -3.19 38.82 8.03 37.28 15.31Z" fill="hsl(26 68% 34%)"/><path d="M34.23 10.31C35.39 17.52 32.33 28.14 26.77 33.75C21.21 39.36 9.35 42.09 0.87 43.96C-7.61 45.84 -15.3 45.29 -24.1 45.01C-32.91 44.73 -44.8 46.11 -51.97 42.29C-59.14 38.46 -64.19 29.46 -67.12 22.07C-70.04 14.69 -71.86 5.44 -69.52 -2.02C-67.18 -9.49 -60.57 -18.48 -53.09 -22.71C-45.61 -26.94 -33.58 -27.38 -24.63 -27.4C-15.69 -27.41 -6.83 -25.79 0.57 -22.8C7.98 -19.81 14.18 -14.99 19.79 -9.48C25.4 -3.96 33.07 3.11 34.23 10.31Z" fill="hsl(32 76% 48%)"/><path d="M11.39 0.66C10.71 5.21 3.94 10.26 -1.16 13.2C-6.25 16.14 -12.51 17.13 -19.17 18.31C-25.83 19.49 -35.41 22.04 -41.14 20.28C-46.87 18.52 -51.74 12.14 -53.56 7.75C-55.38 3.36 -54.61 -2.19 -52.05 -6.08C-49.49 -9.97 -43.82 -13.21 -38.19 -15.61C-32.56 -18 -25.1 -20.68 -18.25 -20.44C-11.39 -20.19 -2.01 -17.66 2.93 -14.15C7.87 -10.63 12.07 -3.9 11.39 0.66Z" fill="hsl(38 84% 62%)" opacity="0.55"/><circle cx="-41.29" cy="-10.89" r="6.4" fill="hsl(24 62% 22% / 0.9)" opacity="0.5"/><circle cx="-17.28" cy="19.59" r="5.18" fill="hsl(24 62% 22% / 0.9)" opacity="0.52"/><circle cx="20.54" cy="12.14" r="5.79" fill="hsl(24 62% 22% / 0.9)" opacity="0.49"/><circle cx="-12.53" cy="-15.7" r="2.78" fill="hsl(24 62% 22% / 0.9)" opacity="0.32"/><circle cx="-24.83" cy="19.81" r="4.32" fill="hsl(24 62% 22% / 0.9)" opacity="0.22"/><circle cx="-7.62" cy="-16.39" r="4.63" fill="hsl(24 62% 22% / 0.9)" opacity="0.24"/><circle cx="-52.3" cy="27.78" r="4.16" fill="hsl(24 62% 22% / 0.9)" opacity="0.38"/><circle cx="4.96" cy="33.99" r="2.59" fill="hsl(24 62% 22% / 0.9)" opacity="0.25"/><circle cx="-15.07" cy="-19.56" r="5.38" fill="hsl(24 62% 22% / 0.9)" opacity="0.49"/><circle cx="4.91" cy="11.33" r="4.98" fill="hsl(24 62% 22% / 0.9)" opacity="0.52"/><circle cx="-2.45" cy="19.87" r="5.77" fill="hsl(24 62% 22% / 0.9)" opacity="0.41"/><circle cx="-28.82" cy="-17.81" r="4.29" fill="hsl(24 62% 22% / 0.9)" opacity="0.44"/><circle cx="-44.25" cy="-6.73" r="2.86" fill="hsl(24 62% 22% / 0.9)" opacity="0.41"/><circle cx="2.14" cy="8.74" r="6.33" fill="hsl(24 62% 22% / 0.9)" opacity="0.35"/></g><g transform="rotate(-18.55 165.02 79.03)"><path d="M212.04 84.03C212.79 91.15 209.17 101.02 204.22 106.71C199.28 112.41 189.99 115.08 182.35 118.2C174.72 121.31 165.48 126.77 158.41 125.41C151.34 124.06 145.69 115.16 139.95 110.07C134.21 104.98 126.65 101.03 123.99 94.87C121.32 88.72 122.04 80.09 123.96 73.17C125.88 66.25 129.71 58.02 135.53 53.38C141.34 48.73 151.04 45.9 158.84 45.32C166.64 44.73 175.52 46.79 182.33 49.89C189.14 53 194.77 58.26 199.72 63.95C204.67 69.64 211.29 76.9 212.04 84.03Z" fill="hsl(26 68% 34%)"/><path d="M205.15 79.03C204.15 85.96 201.84 92.48 198.01 98.12C194.17 103.75 188.62 109.91 182.15 112.81C175.68 115.71 166.57 116.46 159.19 115.53C151.81 114.6 143.24 111.65 137.86 107.25C132.48 102.84 129.82 95.78 126.89 89.11C123.96 82.43 118.06 73.18 120.28 67.2C122.5 61.22 133.64 56.85 140.2 53.23C146.76 49.62 152.99 46.25 159.67 45.53C166.35 44.8 172.91 47.08 180.3 48.9C187.68 50.73 199.84 51.46 203.98 56.48C208.12 61.5 206.14 72.09 205.15 79.03Z" fill="hsl(32 76% 48%)"/><path d="M188.51 69.91C188.41 73.41 180.91 77.17 176.89 80.23C172.88 83.29 169.67 86.92 164.41 88.26C159.15 89.61 150.3 90.24 145.34 88.29C140.37 86.35 136.84 80.9 134.63 76.6C132.41 72.31 129.87 66.22 132.05 62.53C134.22 58.84 142.24 56.56 147.69 54.48C153.15 52.41 159.8 49.3 164.77 50.09C169.74 50.88 173.54 55.92 177.5 59.22C181.46 62.52 188.61 66.41 188.51 69.91Z" fill="hsl(38 84% 62%)" opacity="0.55"/><circle cx="172.09" cy="89.45" r="5.32" fill="hsl(24 62% 22% / 0.9)" opacity="0.33"/><circle cx="151.12" cy="91.25" r="4.87" fill="hsl(24 62% 22% / 0.9)" opacity="0.43"/><circle cx="145.12" cy="70.88" r="4.95" fill="hsl(24 62% 22% / 0.9)" opacity="0.33"/><circle cx="162.01" cy="54.83" r="4.58" fill="hsl(24 62% 22% / 0.9)" opacity="0.33"/><circle cx="186.29" cy="61.43" r="3.96" fill="hsl(24 62% 22% / 0.9)" opacity="0.44"/><circle cx="136.83" cy="75.77" r="2.72" fill="hsl(24 62% 22% / 0.9)" opacity="0.45"/><circle cx="164.83" cy="96.89" r="2.74" fill="hsl(24 62% 22% / 0.9)" opacity="0.53"/><circle cx="175.57" cy="93.64" r="5.65" fill="hsl(24 62% 22% / 0.9)" opacity="0.51"/><circle cx="145.74" cy="67.55" r="3.98" fill="hsl(24 62% 22% / 0.9)" opacity="0.49"/><circle cx="152.33" cy="86.98" r="4.54" fill="hsl(24 62% 22% / 0.9)" opacity="0.53"/><circle cx="143.82" cy="78.96" r="4.46" fill="hsl(24 62% 22% / 0.9)" opacity="0.33"/><circle cx="182.12" cy="85.03" r="4.89" fill="hsl(24 62% 22% / 0.9)" opacity="0.5"/><circle cx="193.69" cy="76.17" r="3.67" fill="hsl(24 62% 22% / 0.9)" opacity="0.45"/><circle cx="133.48" cy="66.44" r="5.62" fill="hsl(24 62% 22% / 0.9)" opacity="0.49"/></g><g transform="rotate(8.67 6.59 33.32)"><path d="M46.77 38.32C47.02 45.95 51.65 56.25 47.75 61.64C43.85 67.04 31.29 67.96 23.35 70.68C15.41 73.41 8.04 78.18 0.11 78.01C-7.81 77.84 -17.8 74.34 -24.22 69.66C-30.64 64.99 -36.79 56.94 -38.4 49.97C-40.01 43 -36.85 34.39 -33.87 27.85C-30.89 21.31 -26.2 15.57 -20.53 10.74C-14.86 5.9 -7.47 0.2 0.15 -1.17C7.76 -2.54 17.46 -0.33 25.14 2.51C32.82 5.35 42.63 9.9 46.23 15.87C49.84 21.83 46.52 30.69 46.77 38.32Z" fill="hsl(26 68% 34%)"/><path d="M48.64 33.32C47.49 40.53 45.24 47.07 41.29 52.99C37.35 58.9 31.83 65.6 24.98 68.83C18.13 72.05 7.77 73.71 0.22 72.35C-7.32 70.99 -14.23 65.33 -20.29 60.66C-26.35 56 -33.85 50.69 -36.13 44.38C-38.41 38.08 -36.4 29.43 -33.95 22.83C-31.5 16.23 -27.25 8.9 -21.45 4.8C-15.65 0.7 -6.58 -1.18 0.86 -1.78C8.31 -2.38 15.33 -0.71 23.23 1.21C31.12 3.13 43.99 4.38 48.22 9.74C52.46 15.09 49.8 26.12 48.64 33.32Z" fill="hsl(32 76% 48%)"/><path d="M27.8 23.92C28.23 28.09 27.18 34.13 23.52 37.21C19.86 40.28 11.75 41.88 5.83 42.38C-0.08 42.88 -6.93 42.17 -11.96 40.2C-16.98 38.22 -21.91 34.45 -24.33 30.55C-26.76 26.64 -28.15 21.05 -26.49 16.75C-24.83 12.44 -19.7 6.39 -14.36 4.69C-9.02 3 -0.32 5.34 5.56 6.59C11.44 7.84 17.21 9.31 20.91 12.2C24.62 15.09 27.36 19.76 27.8 23.92Z" fill="hsl(38 84% 62%)" opacity="0.55"/><circle cx="-2.68" cy="53.78" r="6.11" fill="hsl(24 62% 22% / 0.9)" opacity="0.41"/><circle cx="-21.47" cy="51.58" r="6.16" fill="hsl(24 62% 22% / 0.9)" opacity="0.44"/><circle cx="-6.96" cy="59.39" r="6.21" fill="hsl(24 62% 22% / 0.9)" opacity="0.53"/><circle cx="-4.48" cy="21.5" r="4.39" fill="hsl(24 62% 22% / 0.9)" opacity="0.39"/><circle cx="18.17" cy="11.39" r="4.9" fill="hsl(24 62% 22% / 0.9)" opacity="0.26"/><circle cx="35.95" cy="20.64" r="3.29" fill="hsl(24 62% 22% / 0.9)" opacity="0.48"/><circle cx="-9.57" cy="50.56" r="6.49" fill="hsl(24 62% 22% / 0.9)" opacity="0.37"/><circle cx="-9.91" cy="36.04" r="4.68" fill="hsl(24 62% 22% / 0.9)" opacity="0.31"/><circle cx="1.77" cy="14.77" r="4.68" fill="hsl(24 62% 22% / 0.9)" opacity="0.39"/><circle cx="-6.18" cy="49.26" r="4.46" fill="hsl(24 62% 22% / 0.9)" opacity="0.54"/><circle cx="-15.73" cy="50.35" r="4.85" fill="hsl(24 62% 22% / 0.9)" opacity="0.32"/><circle cx="4.44" cy="58.21" r="2.79" fill="hsl(24 62% 22% / 0.9)" opacity="0.53"/><circle cx="-7.82" cy="52.9" r="3.11" fill="hsl(24 62% 22% / 0.9)" opacity="0.25"/><circle cx="3.91" cy="29.92" r="6.44" fill="hsl(24 62% 22% / 0.9)" opacity="0.45"/></g><ellipse cx="210" cy="137.92" rx="62" ry="23.56" fill="hsl(30 10% 88%)"/><ellipse cx="210" cy="128" rx="62" ry="23.56" fill="hsl(30 8% 94%)"/><ellipse cx="210" cy="128" rx="48.36" ry="17.36" fill="hsl(34 84% 60%)"/></g>
<rect width="1200" height="750" fill="url(#topSheen)"/>
<rect width="1200" height="750" fill="url(#vignette)"/>
</svg>
