<svg xmlns="http://www.w3.org/2000/svg" viewBox="0 0 1200 750" width="1200" height="750">
<defs>
<radialGradient id="ground" cx="50%" cy="32%" r="84%">
<stop offset="0%" stop-color="hsl(6.88 33% 17%)"/>
<stop offset="58%" stop-color="hsl(6.88 26% 10%)"/>
<stop offset="100%" stop-color="hsl(6.88 22% 6%)"/>
</radialGradient>
<radialGradient id="keyLight" cx="50%" cy="44%" r="50%">
<stop offset="0%" stop-color="hsl(26 96% 58% / 0.34)"/>
<stop offset="55%" stop-color="hsl(20 92% 46% / 0.11560000000000002)"/>
<stop offset="100%" stop-color="hsl(20 90% 40% / 0)"/>
</radialGradient>
<radialGradient id="dishShadow" cx="50%" cy="50%" r="50%">
<stop offset="0%" stop-color="hsl(6.88 60% 3% / 0.6)"/>
<stop offset="100%" stop-color="hsl(6.88 60% 3% / 0)"/>
</radialGradient>
<radialGradient id="vignette" cx="50%" cy="46%" r="72%">
<stop offset="52%" stop-color="hsl(6.88 40% 4% / 0)"/>
<stop offset="100%" stop-color="hsl(6.88 40% 4% / 0.62)"/>
</radialGradient>
<linearGradient id="topSheen" x1="0" y1="0" x2="0" y2="1">
<stop offset="0%" stop-color="hsl(38 100% 72% / 0.11)"/>
<stop offset="45%" stop-color="hsl(38 100% 72% / 0)"/>
</linearGradient>
</defs>
<rect width="1200" height="750" fill="url(#ground)"/>
<ellipse cx="600" cy="375" rx="552" ry="330" fill="url(#keyLight)"/>
<g transform="translate(600 375) scale(0.96)"><ellipse cx="0" cy="208" rx="360" ry="54" fill="url(#dishShadow)"/><path d="M-300 130 L300 130 L300 196 L-300 196 z" fill="hsl(30 40% 40%)"/><path d="M-300 130 L300 130 L280 108 L-280 108 z" fill="hsl(32 44% 52%)"/><path d="M-300 64 L300 64 L300 122 L-300 122 z" fill="hsl(30 40% 44%)"/><path d="M-300 64 L300 64 L280 42 L-280 42 z" fill="hsl(32 44% 56%)"/><g transform="translate(0 -108) scale(0.62)"><ellipse cx="0" cy="196" rx="300" ry="48" fill="url(#dishShadow)"/><circle cx="0" cy="0" r="288" fill="hsl(30 62% 44%)"/><circle cx="0" cy="-8" r="288" fill="hsl(33 72% 55%)"/><circle cx="-215.32" cy="-17.16" r="4.61" fill="hsl(24 60% 28% / 0.55)" opacity="0.43"/><circle cx="133.22" cy="4.47" r="5.52" fill="hsl(24 60% 28% / 0.55)" opacity="0.32"/><circle cx="-109.51" cy="190.68" r="5.6" fill="hsl(24 60% 28% / 0.55)" opacity="0.21"/><circle cx="-212.43" cy="-26.27" r="5.27" fill="hsl(24 60% 28% / 0.55)" opacity="0.43"/><circle cx="-48.1" cy="-218.03" r="4.06" fill="hsl(24 60% 28% / 0.55)" opacity="0.4"/><circle cx="5.84" cy="-19.86" r="4.19" fill="hsl(24 60% 28% / 0.55)" opacity="0.23"/><circle cx="114.07" cy="15.22" r="5.03" fill="hsl(24 60% 28% / 0.55)" opacity="0.3"/><circle cx="34.24" cy="46.72" r="2.6" fill="hsl(24 60% 28% / 0.55)" opacity="0.41"/><circle cx="-86.61" cy="90.16" r="4.29" fill="hsl(24 60% 28% / 0.55)" opacity="0.41"/><circle cx="101.44" cy="146.29" r="4.96" fill="hsl(24 60% 28% / 0.55)" opacity="0.21"/><circle cx="172" cy="-75.72" r="6.04" fill="hsl(24 60% 28% / 0.55)" opacity="0.46"/><circle cx="-53.28" cy="-105.72" r="6.4" fill="hsl(24 60% 28% / 0.55)" opacity="0.47"/><circle cx="96.42" cy="87.57" r="5.48" fill="hsl(24 60% 28% / 0.55)" opacity="0.42"/><circle cx="-172.15" cy="-117.03" r="5.26" fill="hsl(24 60% 28% / 0.55)" opacity="0.32"/><circle cx="-129.89" cy="-42.47" r="4.88" fill="hsl(24 60% 28% / 0.55)" opacity="0.31"/><circle cx="13.88" cy="37.63" r="6.5" fill="hsl(24 60% 28% / 0.55)" opacity="0.37"/><circle cx="192.38" cy="-73.51" r="5.72" fill="hsl(24 60% 28% / 0.55)" opacity="0.39"/><circle cx="-114.12" cy="-91.68" r="4.05" fill="hsl(24 60% 28% / 0.55)" opacity="0.25"/><circle cx="10.18" cy="98.26" r="3.13" fill="hsl(24 60% 28% / 0.55)" opacity="0.29"/><circle cx="77.43" cy="196.16" r="5.09" fill="hsl(24 60% 28% / 0.55)" opacity="0.29"/><circle cx="12.27" cy="81.85" r="3.15" fill="hsl(24 60% 28% / 0.55)" opacity="0.37"/><circle cx="29.74" cy="32.86" r="4.75" fill="hsl(24 60% 28% / 0.55)" opacity="0.44"/><circle cx="68.33" cy="86.03" r="4.59" fill="hsl(24 60% 28% / 0.55)" opacity="0.37"/><circle cx="218.61" cy="-22.27" r="5.06" fill="hsl(24 60% 28% / 0.55)" opacity="0.2"/><circle cx="-226.44" cy="4.37" r="3.67" fill="hsl(24 60% 28% / 0.55)" opacity="0.31"/><circle cx="-114.06" cy="-92.23" r="2.64" fill="hsl(24 60% 28% / 0.55)" opacity="0.3"/><circle cx="0" cy="-8" r="241.92" fill="hsl(8 70% 40%)"/><circle cx="0" cy="-8" r="230.4" fill="hsl(44 82% 62%)"/><path d="M151.31 92.12C152.19 101.61 149.91 118.23 145.13 124.36C140.35 130.5 130.37 128.59 122.63 128.93C114.9 129.27 102.81 132.55 98.71 126.41C94.61 120.28 97.07 102.14 98.06 92.12C99.05 82.11 100.53 74.17 104.62 66.31C108.72 58.44 116.76 44.74 122.63 44.93C128.51 45.12 135.07 59.59 139.85 67.46C144.62 75.32 150.43 82.64 151.31 92.12Z" fill="hsl(48 90% 74%)" opacity="0.5"/><path d="M37.79 -114.13C39.61 -109.21 34.78 -99.53 28.35 -95.97C21.92 -92.41 8.85 -92.7 -0.78 -92.75C-10.42 -92.8 -22.65 -92.7 -29.44 -96.27C-36.23 -99.83 -41.61 -108.22 -41.53 -114.13C-41.46 -120.03 -35.78 -128.6 -28.99 -131.7C-22.2 -134.81 -8.52 -133.79 -0.78 -132.75C6.95 -131.71 10.99 -128.57 17.42 -125.47C23.84 -122.37 35.96 -119.04 37.79 -114.13Z" fill="hsl(48 90% 74%)" opacity="0.5"/><path d="M164.07 -91.68C162.89 -82.7 159.48 -76.5 155.23 -69.47C150.98 -62.44 143.9 -49.2 138.58 -49.5C133.25 -49.8 127.75 -64.24 123.27 -71.27C118.8 -78.3 112.81 -83.42 111.72 -91.68C110.63 -99.94 112.25 -114.57 116.72 -120.82C121.2 -127.08 130.97 -128.81 138.58 -129.23C146.18 -129.65 158.08 -129.62 162.33 -123.36C166.58 -117.1 165.25 -100.66 164.07 -91.68Z" fill="hsl(48 90% 74%)" opacity="0.5"/><path d="M65.1 -176.99C64.74 -165.22 67.11 -151.02 63.81 -143.63C60.5 -136.24 50.66 -131.2 45.29 -132.64C39.92 -134.08 35.29 -144.87 31.57 -152.26C27.85 -159.65 23.74 -167.35 22.96 -176.99C22.19 -186.62 23.2 -202.14 26.92 -210.08C30.64 -218.02 38.78 -223.92 45.29 -224.61C51.8 -225.3 62.66 -222.16 65.96 -214.23C69.26 -206.29 65.46 -188.75 65.1 -176.99Z" fill="hsl(48 90% 74%)" opacity="0.5"/><path d="M-159.52 15.38C-160.06 26.38 -159.43 38.43 -164.01 46.21C-168.59 53.99 -180.42 63.5 -187.01 62.05C-193.61 60.61 -197.54 45.34 -203.56 37.56C-209.59 29.78 -221.78 24.62 -223.15 15.38C-224.53 6.15 -217.84 -9.79 -211.82 -17.85C-205.79 -25.91 -195.52 -32.65 -187.01 -32.97C-178.51 -33.3 -165.35 -27.84 -160.77 -19.78C-156.19 -11.72 -158.98 4.39 -159.52 15.38Z" fill="hsl(48 90% 74%)" opacity="0.5"/><path d="M56.06 -202.98C57.8 -194.19 56 -176.58 49.09 -171.9C42.18 -167.22 25.72 -174.53 14.63 -174.89C3.54 -175.24 -10.78 -169.37 -17.45 -174.05C-24.12 -178.73 -24.82 -192.81 -25.41 -202.98C-25.99 -213.16 -27.65 -229.15 -20.97 -235.09C-14.3 -241.04 4.69 -240.42 14.63 -238.68C24.56 -236.94 31.74 -230.6 38.65 -224.65C45.55 -218.7 54.32 -211.77 56.06 -202.98Z" fill="hsl(48 90% 74%)" opacity="0.5"/><path d="M184.79 116.09C183.95 127.12 183.05 139.66 178.71 145.46C174.36 151.25 166.36 149.43 158.73 150.86C151.09 152.29 137.61 159.83 132.91 154.04C128.21 148.24 129.78 127.61 130.55 116.09C131.32 104.57 132.82 91.62 137.52 84.91C142.21 78.21 151.02 76.81 158.73 75.87C166.44 74.92 179.44 72.56 183.78 79.26C188.13 85.96 185.64 105.05 184.79 116.09Z" fill="hsl(48 90% 74%)" opacity="0.5"/><path d="M56.29 -117.83C56.52 -109.3 48.99 -97.61 43.84 -91.27C38.69 -84.94 31.33 -79.51 25.41 -79.83C19.49 -80.16 13.54 -86.89 8.34 -93.22C3.13 -99.55 -4.6 -107.83 -5.84 -117.83C-7.09 -127.82 -4.34 -147.29 0.87 -153.2C6.08 -159.1 18.48 -155.07 25.41 -153.27C32.35 -151.48 37.33 -148.33 42.48 -142.42C47.62 -136.51 56.06 -126.35 56.29 -117.83Z" fill="hsl(48 90% 74%)" opacity="0.5"/><path d="M-20.43 -157.9C-19.62 -152.2 -23.31 -143.74 -31.66 -139.69C-40.01 -135.63 -57.71 -133.5 -70.53 -133.57C-83.35 -133.63 -99.19 -136.01 -108.58 -140.07C-117.98 -144.12 -128.05 -152.5 -126.9 -157.9C-125.74 -163.3 -111.04 -167.85 -101.65 -172.48C-92.25 -177.1 -81.39 -185.43 -70.53 -185.66C-59.67 -185.89 -44.84 -178.47 -36.49 -173.84C-28.14 -169.22 -21.23 -163.59 -20.43 -157.9Z" fill="hsl(48 90% 74%)" opacity="0.5"/><path d="M-89.5 88.14C-88.99 92.84 -104.34 100.23 -113.53 102.97C-122.73 105.71 -134.21 104.54 -144.65 104.58C-155.1 104.61 -167.47 105.91 -176.2 103.17C-184.93 100.43 -195.78 93.74 -197.02 88.14C-198.26 82.54 -192.36 72.5 -183.64 69.57C-174.91 66.63 -155.83 69.66 -144.65 70.52C-133.48 71.39 -125.78 71.83 -116.59 74.77C-107.39 77.7 -90.01 83.44 -89.5 88.14Z" fill="hsl(48 90% 74%)" opacity="0.5"/><path d="M-81.63 13.74C-81.13 22.52 -84.32 35.13 -89.4 41.93C-94.47 48.72 -104.81 54.88 -112.06 54.5C-119.31 54.12 -127.88 46.44 -132.9 39.65C-137.93 32.86 -141.95 22.7 -142.21 13.74C-142.47 4.79 -139.47 -8.8 -134.45 -14.08C-129.42 -19.36 -119.07 -18.49 -112.06 -17.93C-105.05 -17.37 -97.46 -16 -92.39 -10.72C-87.32 -5.44 -82.12 4.97 -81.63 13.74Z" fill="hsl(48 90% 74%)" opacity="0.5"/><path d="M-36.12 -193.85C-35.14 -185.65 -39.29 -170.38 -43.99 -165.07C-48.69 -159.76 -57.8 -161.63 -64.32 -161.99C-70.84 -162.35 -79.08 -161.92 -83.13 -167.23C-87.18 -172.54 -88.85 -185.3 -88.63 -193.85C-88.4 -202.4 -85.81 -211.74 -81.76 -218.54C-77.71 -225.33 -69.63 -235.34 -64.32 -234.64C-59.01 -233.93 -54.58 -221.08 -49.88 -214.29C-45.18 -207.49 -37.1 -202.05 -36.12 -193.85Z" fill="hsl(48 90% 74%)" opacity="0.5"/><circle cx="-2.89" cy="-110.86" r="34.43" fill="hsl(2 68% 38%)"/><circle cx="-2.89" cy="-112.86" r="30.99" fill="hsl(4 74% 46%)"/><circle cx="-11.49" cy="-121.19" r="6.89" fill="hsl(10 60% 70% / 0.5)"/><circle cx="99.5" cy="-154.5" r="34.53" fill="hsl(2 68% 38%)"/><circle cx="99.5" cy="-156.5" r="31.07" fill="hsl(4 74% 46%)"/><circle cx="90.87" cy="-164.85" r="6.91" fill="hsl(10 60% 70% / 0.5)"/><circle cx="46.78" cy="-57.3" r="33.91" fill="hsl(2 68% 38%)"/><circle cx="46.78" cy="-59.3" r="30.52" fill="hsl(4 74% 46%)"/><circle cx="38.3" cy="-67.48" r="6.78" fill="hsl(10 60% 70% / 0.5)"/><circle cx="145.99" cy="23.47" r="35.5" fill="hsl(2 68% 38%)"/><circle cx="145.99" cy="21.47" r="31.95" fill="hsl(4 74% 46%)"/><circle cx="137.12" cy="12.82" r="7.1" fill="hsl(10 60% 70% / 0.5)"/><circle cx="124.69" cy="-66.08" r="38.44" fill="hsl(2 68% 38%)"/><circle cx="124.69" cy="-68.08" r="34.59" fill="hsl(4 74% 46%)"/><circle cx="115.08" cy="-77.61" r="7.69" fill="hsl(10 60% 70% / 0.5)"/><circle cx="169.67" cy="-72.22" r="40.22" fill="hsl(2 68% 38%)"/><circle cx="169.67" cy="-74.22" r="36.2" fill="hsl(4 74% 46%)"/><circle cx="159.61" cy="-84.29" r="8.04" fill="hsl(10 60% 70% / 0.5)"/><circle cx="-2.6" cy="-86.94" r="34.38" fill="hsl(2 68% 38%)"/><circle cx="-2.6" cy="-88.94" r="30.94" fill="hsl(4 74% 46%)"/><circle cx="-11.19" cy="-97.25" r="6.88" fill="hsl(10 60% 70% / 0.5)"/><circle cx="-117.94" cy="6.47" r="34.76" fill="hsl(2 68% 38%)"/><circle cx="-117.94" cy="4.47" r="31.28" fill="hsl(4 74% 46%)"/><circle cx="-126.63" cy="-3.96" r="6.95" fill="hsl(10 60% 70% / 0.5)"/><circle cx="-48.03" cy="33.55" r="36.72" fill="hsl(2 68% 38%)"/><circle cx="-48.03" cy="31.55" r="33.05" fill="hsl(4 74% 46%)"/><circle cx="-57.2" cy="22.54" r="7.34" fill="hsl(10 60% 70% / 0.5)"/><circle cx="182.3" cy="-18.24" r="34.88" fill="hsl(2 68% 38%)"/><circle cx="182.3" cy="-20.24" r="31.39" fill="hsl(4 74% 46%)"/><circle cx="173.58" cy="-28.71" r="6.98" fill="hsl(10 60% 70% / 0.5)"/><circle cx="-95.49" cy="44.43" r="33.1" fill="hsl(2 68% 38%)"/><circle cx="-95.49" cy="42.43" r="29.79" fill="hsl(4 74% 46%)"/><circle cx="-103.76" cy="34.5" r="6.62" fill="hsl(10 60% 70% / 0.5)"/><ellipse cx="91.8" cy="-7.25" rx="31.45" ry="16.82" fill="hsl(104 46% 34%)" transform="rotate(7.38 91.8 -7.25)"/><ellipse cx="62.39" cy="-167.7" rx="28.49" ry="13.9" fill="hsl(104 46% 34%)" transform="rotate(45.74 62.39 -167.7)"/><ellipse cx="-1" cy="71.15" rx="29.63" ry="13.44" fill="hsl(104 46% 34%)" transform="rotate(6.99 -1 71.15)"/><ellipse cx="-71.38" cy="-115.35" rx="28.98" ry="15.2" fill="hsl(104 46% 34%)" transform="rotate(0.05 -71.38 -115.35)"/><g stroke="hsl(24 60% 24% / 0.32)" stroke-width="5"><path d="M-247.68 -8 L247.68 -8"/><path d="M-175.14 -183.14 L175.14 167.14"/><path d="M0 -255.68 L0 239.68"/><path d="M175.14 -183.14 L-175.14 167.14"/></g></g><g transform="translate(292 40) scale(0.34)"><ellipse cx="0" cy="208" rx="170" ry="34" fill="url(#dishShadow)"/><path d="M-116 -70 L116 -70 L88 176 q-88 24 -176 0 z" fill="hsl(4 70% 46%)"/><path d="M-116 -70 L-78 -70 L-56 184 q-18 -3 -32 -8 z" fill="hsl(0 0% 100% / 0.16)"/><path d="M-108 -14 L108 -14 L100 62 L-100 62 z" fill="hsl(36 18% 96%)" opacity="0.94"/><circle cx="0" cy="24" r="30" fill="hsl(18 90% 52%)"/><ellipse cx="0" cy="-70" rx="116" ry="26" fill="hsl(2 60% 36%)"/><ellipse cx="0" cy="-76" rx="120" ry="26" fill="hsl(6 74% 54%)"/><ellipse cx="0" cy="-76" rx="96" ry="19" fill="hsl(4 58% 32%)"/><path d="M-14 -84 L44 -230" stroke="hsl(36 16% 92%)" stroke-width="26" stroke-linecap="round"/><path d="M-14 -84 L44 -230" stroke="hsl(6 76% 54%)" stroke-width="10" stroke-linecap="round" opacity="0.7"/></g></g>
<rect width="1200" height="750" fill="url(#topSheen)"/>
<rect width="1200" height="750" fill="url(#vignette)"/>
</svg>
