<svg xmlns="http://www.w3.org/2000/svg" viewBox="0 0 600 600" width="600" height="600">
<defs>
<radialGradient id="ground" cx="50%" cy="32%" r="84%">
<stop offset="0%" stop-color="hsl(341.92 33% 17%)"/>
<stop offset="58%" stop-color="hsl(341.92 26% 10%)"/>
<stop offset="100%" stop-color="hsl(341.92 22% 6%)"/>
</radialGradient>
<radialGradient id="keyLight" cx="50%" cy="44%" r="50%">
<stop offset="0%" stop-color="hsl(26 96% 58% / 0.4)"/>
<stop offset="55%" stop-color="hsl(20 92% 46% / 0.136)"/>
<stop offset="100%" stop-color="hsl(20 90% 40% / 0)"/>
</radialGradient>
<radialGradient id="dishShadow" cx="50%" cy="50%" r="50%">
<stop offset="0%" stop-color="hsl(341.92 60% 3% / 0.6)"/>
<stop offset="100%" stop-color="hsl(341.92 60% 3% / 0)"/>
</radialGradient>
<radialGradient id="vignette" cx="50%" cy="46%" r="72%">
<stop offset="52%" stop-color="hsl(341.92 40% 4% / 0)"/>
<stop offset="100%" stop-color="hsl(341.92 40% 4% / 0.62)"/>
</radialGradient>
<linearGradient id="topSheen" x1="0" y1="0" x2="0" y2="1">
<stop offset="0%" stop-color="hsl(38 100% 72% / 0.11)"/>
<stop offset="45%" stop-color="hsl(38 100% 72% / 0)"/>
</linearGradient>
</defs>
<rect width="600" height="600" fill="url(#ground)"/>
<ellipse cx="300" cy="300" rx="276" ry="264" fill="url(#keyLight)"/>
<g transform="translate(300 312) scale(0.59)"><ellipse cx="0" cy="176" rx="250" ry="44" fill="url(#dishShadow)"/><ellipse cx="0" cy="158" rx="260" ry="78" fill="hsl(28 12% 20%)"/><ellipse cx="0" cy="150.2" rx="244.4" ry="72.8" fill="hsl(28 14% 31%)"/><ellipse cx="0" cy="147.6" rx="182" ry="49.4" fill="hsl(28 14% 24%)" opacity="0.75"/><path d="M-150 96 L150 96 L140 40 L-140 40 z" fill="hsl(26 46% 22%)"/><path d="M-140 40 L140 40 L130 -6 L-130 -6 z" fill="hsl(30 34% 88%)"/><path d="M-130 -6 L130 -6 L120 -52 L-120 -52 z" fill="hsl(24 48% 24%)"/><path d="M-120 -52 L120 -52 L110 -98 L-110 -98 z" fill="hsl(30 34% 88%)"/><path d="M-110 -98 L110 -98 L100 -140 L-100 -140 z" fill="hsl(22 52% 20%)"/><path d="M-100 -140 q26 -30 52 -6 q26 -28 50 -2 L100 -140 z" fill="hsl(20 56% 26%)"/><circle cx="0" cy="-166" r="22" fill="hsl(348 74% 46%)"/><path d="M-150 96 L-98 -140 L-90 -142 L-146 84 z" fill="hsl(0 0% 0% / 0.18)"/></g>
<rect width="600" height="600" fill="url(#topSheen)"/>
<rect width="600" height="600" fill="url(#vignette)"/>
</svg>
