<svg xmlns="http://www.w3.org/2000/svg" viewBox="0 0 600 600" width="600" height="600">
<defs>
<radialGradient id="ground" cx="50%" cy="32%" r="84%">
<stop offset="0%" stop-color="hsl(29.93 33% 17%)"/>
<stop offset="58%" stop-color="hsl(29.93 26% 10%)"/>
<stop offset="100%" stop-color="hsl(29.93 22% 6%)"/>
</radialGradient>
<radialGradient id="keyLight" cx="50%" cy="44%" r="50%">
<stop offset="0%" stop-color="hsl(26 96% 58% / 0.4)"/>
<stop offset="55%" stop-color="hsl(20 92% 46% / 0.136)"/>
<stop offset="100%" stop-color="hsl(20 90% 40% / 0)"/>
</radialGradient>
<radialGradient id="dishShadow" cx="50%" cy="50%" r="50%">
<stop offset="0%" stop-color="hsl(29.93 60% 3% / 0.6)"/>
<stop offset="100%" stop-color="hsl(29.93 60% 3% / 0)"/>
</radialGradient>
<radialGradient id="vignette" cx="50%" cy="46%" r="72%">
<stop offset="52%" stop-color="hsl(29.93 40% 4% / 0)"/>
<stop offset="100%" stop-color="hsl(29.93 40% 4% / 0.62)"/>
</radialGradient>
<linearGradient id="topSheen" x1="0" y1="0" x2="0" y2="1">
<stop offset="0%" stop-color="hsl(38 100% 72% / 0.11)"/>
<stop offset="45%" stop-color="hsl(38 100% 72% / 0)"/>
</linearGradient>
</defs>
<rect width="600" height="600" fill="url(#ground)"/>
<ellipse cx="300" cy="300" rx="276" ry="264" fill="url(#keyLight)"/>
<g transform="translate(300 312) scale(0.59)"><ellipse cx="0" cy="178" rx="280" ry="48" fill="url(#dishShadow)"/><ellipse cx="0" cy="172" rx="280" ry="89.6" fill="hsl(24 34% 15%)"/><ellipse cx="0" cy="158" rx="280" ry="89.6" fill="hsl(26 38% 26%)"/><ellipse cx="-155.24" cy="158" rx="149.08" ry="67.2" fill="none" stroke="hsl(26 40% 20% / 0.4)" stroke-width="3"/><ellipse cx="-134.79" cy="158" rx="100.58" ry="67.2" fill="none" stroke="hsl(26 40% 20% / 0.4)" stroke-width="3"/><ellipse cx="9.76" cy="158" rx="125.15" ry="67.2" fill="none" stroke="hsl(26 40% 20% / 0.4)" stroke-width="3"/><ellipse cx="-163.71" cy="158" rx="137.7" ry="67.2" fill="none" stroke="hsl(26 40% 20% / 0.4)" stroke-width="3"/><ellipse cx="167.36" cy="158" rx="60.46" ry="67.2" fill="none" stroke="hsl(26 40% 20% / 0.4)" stroke-width="3"/><g transform="translate(-96 60) rotate(-4)"><path d="M-190 40 h380 v-26 a26 26 0 0 0 -26 -26 h-328 a26 26 0 0 0 -26 26 z" fill="hsl(32 56% 52%)"/><path d="M-190 -12 h380 v-16 h-380 z" fill="hsl(96 42% 42%)"/><path d="M-190 -28 h380 v-22 h-380 z" fill="hsl(32 74% 54%)"/><path d="M-190 -50 h380 v-14 h-380 z" fill="hsl(40 92% 60%)"/><path d="M-190 -64 h380 v-18 h-380 z" fill="hsl(6 70% 46%)"/><path d="M-190 -82 h380 v-16 h-380 z" fill="hsl(32 56% 58%)"/><path d="M-190 -98 h380 v-30 a30 30 0 0 0 -30 -30 h-320 a30 30 0 0 0 -30 30 z" fill="hsl(30 62% 56%)"/><ellipse cx="-59.53" cy="-139.48" rx="8.34" ry="4.41" fill="#f7e2b4" opacity="0.85" transform="rotate(-12.75 -59.53 -139.48)"/><ellipse cx="6.31" cy="-137.05" rx="7.32" ry="3.55" fill="#f7e2b4" opacity="0.85" transform="rotate(26.05 6.31 -137.05)"/><ellipse cx="101.62" cy="-131.11" rx="8.16" ry="4.41" fill="#f7e2b4" opacity="0.85" transform="rotate(11.18 101.62 -131.11)"/><ellipse cx="-59.63" cy="-141.77" rx="8.91" ry="4.43" fill="#f7e2b4" opacity="0.85" transform="rotate(-3.16 -59.63 -141.77)"/><ellipse cx="110.45" cy="-128.79" rx="8.14" ry="3.8" fill="#f7e2b4" opacity="0.85" transform="rotate(-29.76 110.45 -128.79)"/><ellipse cx="-52.59" cy="-131.79" rx="6.78" ry="3.98" fill="#f7e2b4" opacity="0.85" transform="rotate(-8.92 -52.59 -131.79)"/><ellipse cx="21.31" cy="-141.04" rx="6.45" ry="4.51" fill="#f7e2b4" opacity="0.85" transform="rotate(7.16 21.31 -141.04)"/></g><g transform="translate(104 24) rotate(6)"><path d="M-190 40 h380 v-26 a26 26 0 0 0 -26 -26 h-328 a26 26 0 0 0 -26 26 z" fill="hsl(32 56% 52%)"/><path d="M-190 -12 h380 v-16 h-380 z" fill="hsl(96 42% 42%)"/><path d="M-190 -28 h380 v-22 h-380 z" fill="hsl(32 74% 54%)"/><path d="M-190 -50 h380 v-14 h-380 z" fill="hsl(40 92% 60%)"/><path d="M-190 -64 h380 v-18 h-380 z" fill="hsl(6 70% 46%)"/><path d="M-190 -82 h380 v-16 h-380 z" fill="hsl(32 56% 58%)"/><path d="M-190 -98 h380 v-30 a30 30 0 0 0 -30 -30 h-320 a30 30 0 0 0 -30 30 z" fill="hsl(30 62% 56%)"/><ellipse cx="85.49" cy="-129.88" rx="7.84" ry="4.35" fill="#f7e2b4" opacity="0.85" transform="rotate(-8.45 85.49 -129.88)"/><ellipse cx="75.31" cy="-134.55" rx="7.24" ry="3.71" fill="#f7e2b4" opacity="0.85" transform="rotate(28.7 75.31 -134.55)"/><ellipse cx="47.39" cy="-129.26" rx="8.17" ry="3.84" fill="#f7e2b4" opacity="0.85" transform="rotate(28.84 47.39 -129.26)"/><ellipse cx="22.31" cy="-137.58" rx="7.09" ry="3.68" fill="#f7e2b4" opacity="0.85" transform="rotate(31.7 22.31 -137.58)"/><ellipse cx="-90.55" cy="-136.42" rx="6.81" ry="3.82" fill="#f7e2b4" opacity="0.85" transform="rotate(28.75 -90.55 -136.42)"/><ellipse cx="-53.76" cy="-137.91" rx="8.04" ry="4.28" fill="#f7e2b4" opacity="0.85" transform="rotate(-33.8 -53.76 -137.91)"/><ellipse cx="42.49" cy="-134.09" rx="7.61" ry="4.08" fill="#f7e2b4" opacity="0.85" transform="rotate(32.63 42.49 -134.09)"/></g></g>
<rect width="600" height="600" fill="url(#topSheen)"/>
<rect width="600" height="600" fill="url(#vignette)"/>
</svg>
