<svg xmlns="http://www.w3.org/2000/svg" viewBox="0 0 600 600" width="600" height="600">
<defs>
<radialGradient id="ground" cx="50%" cy="32%" r="84%">
<stop offset="0%" stop-color="hsl(33.43 33% 17%)"/>
<stop offset="58%" stop-color="hsl(33.43 26% 10%)"/>
<stop offset="100%" stop-color="hsl(33.43 22% 6%)"/>
</radialGradient>
<radialGradient id="keyLight" cx="50%" cy="44%" r="50%">
<stop offset="0%" stop-color="hsl(26 96% 58% / 0.4)"/>
<stop offset="55%" stop-color="hsl(20 92% 46% / 0.136)"/>
<stop offset="100%" stop-color="hsl(20 90% 40% / 0)"/>
</radialGradient>
<radialGradient id="dishShadow" cx="50%" cy="50%" r="50%">
<stop offset="0%" stop-color="hsl(33.43 60% 3% / 0.6)"/>
<stop offset="100%" stop-color="hsl(33.43 60% 3% / 0)"/>
</radialGradient>
<radialGradient id="vignette" cx="50%" cy="46%" r="72%">
<stop offset="52%" stop-color="hsl(33.43 40% 4% / 0)"/>
<stop offset="100%" stop-color="hsl(33.43 40% 4% / 0.62)"/>
</radialGradient>
<linearGradient id="topSheen" x1="0" y1="0" x2="0" y2="1">
<stop offset="0%" stop-color="hsl(38 100% 72% / 0.11)"/>
<stop offset="45%" stop-color="hsl(38 100% 72% / 0)"/>
</linearGradient>
</defs>
<rect width="600" height="600" fill="url(#ground)"/>
<ellipse cx="300" cy="300" rx="276" ry="264" fill="url(#keyLight)"/>
<g transform="translate(300 312) scale(0.59)"><ellipse cx="0" cy="168" rx="300" ry="52" fill="url(#dishShadow)"/><ellipse cx="0" cy="150" rx="300" ry="90" fill="hsl(28 12% 20%)"/><ellipse cx="0" cy="141" rx="282" ry="84" fill="hsl(28 14% 31%)"/><ellipse cx="0" cy="138" rx="210" ry="57" fill="hsl(28 14% 24%)" opacity="0.75"/><g transform="rotate(-13.17 -48 73.95)"><path d="M100.45 78.95C96.21 86.46 64.07 91.82 49.46 98.88C34.85 105.94 32.23 117.54 12.79 121.3C-6.65 125.06 -41.76 122.87 -67.2 121.43C-92.63 119.99 -120.77 117.66 -139.8 112.66C-158.83 107.65 -178.11 98.76 -181.36 91.41C-184.61 84.06 -166.1 76.29 -159.29 68.55C-152.47 60.82 -155.83 50.33 -140.48 44.99C-125.12 39.65 -91.09 36.79 -67.17 36.52C-43.25 36.26 -20.62 40.49 3.06 43.38C26.74 46.26 58.66 47.89 74.9 53.82C91.13 59.75 104.69 71.44 100.45 78.95Z" fill="hsl(26 68% 34%)"/><path d="M80.69 73.95C77.29 81.37 63.67 88.21 50.72 94.14C37.77 100.06 22.47 106.14 2.99 109.48C-16.49 112.81 -42.52 114.52 -66.17 114.16C-89.82 113.8 -120.56 112.04 -138.91 107.33C-157.26 102.63 -171.13 93.4 -176.29 85.94C-181.45 78.47 -178.53 69.23 -169.85 62.57C-161.16 55.91 -140.95 51.89 -124.17 45.98C-107.39 40.07 -91.52 29.18 -69.17 27.11C-46.81 25.04 -13.43 29.83 9.95 33.57C33.33 37.32 59.34 42.86 71.13 49.59C82.92 56.32 84.09 66.53 80.69 73.95Z" fill="hsl(32 76% 48%)"/><path d="M24.01 63.87C22.37 68.37 6.51 73.3 -6.06 76.31C-18.63 79.32 -34.21 80.64 -51.42 81.94C-68.64 83.24 -95.16 85.98 -109.35 84.1C-123.54 82.22 -129.3 75.42 -136.54 70.66C-143.79 65.9 -158.67 59.48 -152.82 55.56C-146.96 51.64 -119.04 49.82 -101.43 47.16C-83.83 44.51 -64.72 39.27 -47.18 39.63C-29.65 39.99 -8.07 45.27 3.79 49.31C15.66 53.35 25.66 59.37 24.01 63.87Z" fill="hsl(38 84% 62%)" opacity="0.55"/><circle cx="-73.09" cy="75.57" r="4.46" fill="hsl(24 62% 22% / 0.9)" opacity="0.35"/><circle cx="-121.22" cy="92.52" r="5.99" fill="hsl(24 62% 22% / 0.9)" opacity="0.31"/><circle cx="-49.77" cy="44.06" r="4.74" fill="hsl(24 62% 22% / 0.9)" opacity="0.44"/><circle cx="-65.15" cy="54.9" r="3.22" fill="hsl(24 62% 22% / 0.9)" opacity="0.43"/><circle cx="-47.25" cy="89.48" r="2.92" fill="hsl(24 62% 22% / 0.9)" opacity="0.23"/><circle cx="-78.28" cy="90.43" r="3.16" fill="hsl(24 62% 22% / 0.9)" opacity="0.46"/><circle cx="-17.64" cy="103.29" r="4.44" fill="hsl(24 62% 22% / 0.9)" opacity="0.53"/><circle cx="16.04" cy="91.38" r="5.12" fill="hsl(24 62% 22% / 0.9)" opacity="0.24"/><circle cx="-137.81" cy="80.89" r="2.79" fill="hsl(24 62% 22% / 0.9)" opacity="0.51"/><circle cx="-57.46" cy="50.09" r="3.99" fill="hsl(24 62% 22% / 0.9)" opacity="0.22"/><circle cx="3.15" cy="74.02" r="4.99" fill="hsl(24 62% 22% / 0.9)" opacity="0.3"/><circle cx="-108.04" cy="63.06" r="3.83" fill="hsl(24 62% 22% / 0.9)" opacity="0.34"/><circle cx="1.84" cy="96.15" r="3.1" fill="hsl(24 62% 22% / 0.9)" opacity="0.39"/><circle cx="-8.69" cy="93.58" r="5.57" fill="hsl(24 62% 22% / 0.9)" opacity="0.26"/></g><g transform="rotate(4.29 0 86.22)"><path d="M127.95 91.22C130.96 98.48 127.19 108.1 115.53 114.84C103.88 121.58 80.41 128.7 58.04 131.66C35.67 134.62 5.48 134.02 -18.7 132.61C-42.88 131.2 -71.7 128.35 -87.04 123.18C-102.37 118.01 -102.03 109.06 -110.72 101.56C-119.4 94.07 -143.17 85.24 -139.14 78.22C-135.12 71.2 -106.89 63.6 -86.56 59.43C-66.23 55.27 -40.46 54.08 -17.18 53.21C6.1 52.34 34.01 51.2 53.12 54.21C72.23 57.22 85 65.12 97.47 71.29C109.94 77.46 124.94 83.96 127.95 91.22Z" fill="hsl(26 68% 34%)"/><path d="M133.16 86.22C135.54 93.68 130.57 104.35 116.57 110.06C102.56 115.76 71.85 117.08 49.11 120.43C26.37 123.79 1.33 131.12 -19.87 130.2C-41.08 129.28 -61.95 120.41 -78.11 114.9C-94.26 109.39 -109.73 103.79 -116.8 97.13C-123.86 90.48 -125 82.28 -120.51 74.96C-116.01 67.64 -106.43 59.06 -89.83 53.23C-73.22 47.41 -43.92 40.15 -20.87 40.03C2.17 39.9 27.89 48.27 48.43 52.48C68.96 56.69 88.21 59.67 102.33 65.29C116.45 70.92 130.79 78.76 133.16 86.22Z" fill="hsl(32 76% 48%)"/><path d="M71.09 76.14C71.14 80.12 51.55 84.21 39.74 88.11C27.93 92 16.12 98.57 0.23 99.52C-15.67 100.48 -39.48 96.46 -55.62 93.82C-71.77 91.18 -89.04 87.96 -96.63 83.69C-104.23 79.41 -108.66 72.09 -101.17 68.17C-93.69 64.25 -68.24 62.2 -51.72 60.19C-35.2 58.18 -17.26 55.43 -2.07 56.1C13.12 56.78 27.23 60.9 39.42 64.24C51.62 67.58 71.03 72.16 71.09 76.14Z" fill="hsl(38 84% 62%)" opacity="0.55"/><circle cx="6.46" cy="53.45" r="5.5" fill="hsl(24 62% 22% / 0.9)" opacity="0.49"/><circle cx="-45.06" cy="77.62" r="5.4" fill="hsl(24 62% 22% / 0.9)" opacity="0.29"/><circle cx="5.78" cy="73.01" r="2.97" fill="hsl(24 62% 22% / 0.9)" opacity="0.22"/><circle cx="-78.14" cy="63.25" r="6.02" fill="hsl(24 62% 22% / 0.9)" opacity="0.31"/><circle cx="91.05" cy="70.47" r="2.64" fill="hsl(24 62% 22% / 0.9)" opacity="0.4"/><circle cx="14.37" cy="109.75" r="2.89" fill="hsl(24 62% 22% / 0.9)" opacity="0.28"/><circle cx="86.15" cy="93.05" r="3.8" fill="hsl(24 62% 22% / 0.9)" opacity="0.54"/><circle cx="9.21" cy="68.19" r="6.06" fill="hsl(24 62% 22% / 0.9)" opacity="0.34"/><circle cx="-15.42" cy="116.83" r="5.21" fill="hsl(24 62% 22% / 0.9)" opacity="0.48"/><circle cx="72.02" cy="93.72" r="3.02" fill="hsl(24 62% 22% / 0.9)" opacity="0.45"/><circle cx="-88.98" cy="95.6" r="6.13" fill="hsl(24 62% 22% / 0.9)" opacity="0.45"/><circle cx="24.75" cy="113.78" r="5.37" fill="hsl(24 62% 22% / 0.9)" opacity="0.34"/><circle cx="66.03" cy="99.13" r="5.98" fill="hsl(24 62% 22% / 0.9)" opacity="0.47"/><circle cx="-83.93" cy="72.81" r="5.76" fill="hsl(24 62% 22% / 0.9)" opacity="0.52"/></g><g transform="rotate(8.4 48 73.24)"><path d="M167.93 78.24C166.94 85.42 160.8 92.52 150.35 99.17C139.89 105.81 125.06 115.37 105.2 118.09C85.34 120.8 56.01 116.48 31.18 115.46C6.36 114.43 -24.43 116.07 -43.76 111.93C-63.1 107.8 -77.81 98.35 -84.83 90.65C-91.84 82.95 -92.12 73.63 -85.85 65.73C-79.59 57.84 -66.02 48.97 -47.23 43.27C-28.44 37.57 2.52 31.62 26.89 31.52C51.26 31.42 77.44 38.6 99.01 42.7C120.59 46.79 144.83 50.17 156.32 56.09C167.8 62.01 168.93 71.06 167.93 78.24Z" fill="hsl(26 68% 34%)"/><path d="M178.63 73.24C176.32 80.82 165.87 88.87 152.27 94.56C138.68 100.25 117.58 103.95 97.04 107.4C76.49 110.86 50.76 116 29 115.29C7.24 114.58 -14.36 108.09 -33.52 103.17C-52.68 98.25 -77.72 92.78 -85.96 85.75C-94.2 78.73 -92.12 67.92 -82.95 61C-73.79 54.08 -49.87 48.69 -30.97 44.24C-12.08 39.79 7.03 36.58 30.4 34.3C53.77 32.02 86.62 28.1 109.24 30.57C131.86 33.03 154.57 41.97 166.13 49.08C177.7 56.19 180.94 65.66 178.63 73.24Z" fill="hsl(32 76% 48%)"/><path d="M108.64 63.16C107.7 67.33 98.27 72.21 87.49 75.07C76.7 77.93 58.85 79.76 43.94 80.3C29.04 80.84 12.54 80 -1.94 78.31C-16.41 76.62 -37.14 73.76 -42.91 70.17C-48.68 66.57 -43.35 60.44 -36.54 56.74C-29.73 53.04 -16.27 50.92 -2.05 47.95C12.18 44.99 32.94 38.6 48.8 38.94C64.66 39.29 83.15 46 93.12 50.03C103.09 54.07 109.58 58.98 108.64 63.16Z" fill="hsl(38 84% 62%)" opacity="0.55"/><circle cx="13.77" cy="40.77" r="3.4" fill="hsl(24 62% 22% / 0.9)" opacity="0.24"/><circle cx="1.17" cy="65.88" r="3.47" fill="hsl(24 62% 22% / 0.9)" opacity="0.41"/><circle cx="100.39" cy="86.6" r="6.13" fill="hsl(24 62% 22% / 0.9)" opacity="0.25"/><circle cx="-3.48" cy="91.96" r="5.46" fill="hsl(24 62% 22% / 0.9)" opacity="0.43"/><circle cx="-7.01" cy="63.92" r="3.23" fill="hsl(24 62% 22% / 0.9)" opacity="0.31"/><circle cx="-21.32" cy="53.53" r="6.16" fill="hsl(24 62% 22% / 0.9)" opacity="0.26"/><circle cx="55.34" cy="96.71" r="6.19" fill="hsl(24 62% 22% / 0.9)" opacity="0.44"/><circle cx="142.06" cy="58.16" r="5.04" fill="hsl(24 62% 22% / 0.9)" opacity="0.5"/><circle cx="-23.62" cy="65.46" r="3.68" fill="hsl(24 62% 22% / 0.9)" opacity="0.32"/><circle cx="61.08" cy="106.6" r="4.51" fill="hsl(24 62% 22% / 0.9)" opacity="0.27"/><circle cx="2.27" cy="42.47" r="5.68" fill="hsl(24 62% 22% / 0.9)" opacity="0.38"/><circle cx="68.01" cy="82.69" r="5.3" fill="hsl(24 62% 22% / 0.9)" opacity="0.53"/><circle cx="35.72" cy="57.87" r="4.27" fill="hsl(24 62% 22% / 0.9)" opacity="0.33"/><circle cx="21.94" cy="55.19" r="3.52" fill="hsl(24 62% 22% / 0.9)" opacity="0.44"/></g><ellipse cx="210" cy="137.92" rx="62" ry="23.56" fill="hsl(30 10% 88%)"/><ellipse cx="210" cy="128" rx="62" ry="23.56" fill="hsl(30 8% 94%)"/><ellipse cx="210" cy="128" rx="48.36" ry="17.36" fill="hsl(34 84% 60%)"/></g>
<rect width="600" height="600" fill="url(#topSheen)"/>
<rect width="600" height="600" fill="url(#vignette)"/>
</svg>
